<?xml version="1.0" standalone="no"?>
<!DOCTYPE svg PUBLIC "-//W3C//DTD SVG 1.1//EN" "http://www.w3.org/Graphics/SVG/1.1/DTD/svg11.dtd" >
<svg>
<metadata>
Created by FontForge 20090914 at Tue Mar 19 01:31:35 2013
 By www-data
Copyright (c) Mark Simonson, 2005. All rights reserved.
</metadata>
<defs>
<font id="ProximaNova-Light" horiz-adv-x="1169" >
  <font-face 
    font-family="Proxima Nova"
    font-weight="300"
    font-stretch="normal"
    units-per-em="2048"
    panose-1="2 0 5 6 3 0 0 2 0 4"
    ascent="1618"
    descent="-430"
    x-height="989"
    cap-height="1366"
    bbox="-199 -407.999 2161 1810"
    underline-thickness="40"
    underline-position="-231"
    unicode-range="U+0020-U+FB04"
  />
<missing-glyph horiz-adv-x="1058" 
d="M170 -184v1724h719v-1724h-719zM233 -123h590v1602h-590v-1602z" />
    <glyph glyph-name=".notdef" horiz-adv-x="1058" 
d="M170 -184v1724h719v-1724h-719zM233 -123h590v1602h-590v-1602z" />
    <glyph glyph-name="space" unicode=" " horiz-adv-x="530" 
 />
    <glyph glyph-name="exclam" unicode="!" horiz-adv-x="448" 
d="M135 72c0 23.333 8.83301 43.833 26.5 61.5s38.834 26.5 63.501 26.5s45.834 -9 63.501 -27s26.5 -38.333 26.5 -61c0 -24.667 -8.83301 -45.834 -26.5 -63.501s-38.834 -26.5 -63.501 -26.5s-45.834 8.83301 -63.501 26.5s-26.5 38.834 -26.5 63.501zM156 1366h137
l-27 -1010h-84z" />
    <glyph glyph-name="quotedbl" unicode="&#x22;" horiz-adv-x="649" 
d="M119 1313c0 20.667 6.83301 38 20.5 52s31.5 21 53.5 21c20.667 0 38 -7.16699 52 -21.5s21 -31.5 21 -51.5l-43 -439h-61c-28.667 274.667 -43 421 -43 439zM383 1313c0 20.667 7.16699 38 21.5 52s31.833 21 52.5 21c22 0 39.667 -7.16699 53 -21.5s20 -31.5 20 -51.5
l-43 -439h-61c-28.667 274.667 -43 421 -43 439z" />
    <glyph glyph-name="numbersign" unicode="#" horiz-adv-x="1185" 
d="M49 381l27 84h229l146 436h-232l25 84h235l125 381h96l-125 -381h240l125 381h98l-129 -381h228l-23 -84h-231l-148 -436h238l-27 -84h-237l-127 -381h-99l131 381h-241l-129 -381h-97l129 381h-227zM401 465h238l147 436h-239z" />
    <glyph glyph-name="dollar" unicode="$" horiz-adv-x="1196" 
d="M98 193l76.002 88c105.333 -120 233.666 -185.667 384.999 -197v573c-66.667 19.333 -118.834 36.166 -156.501 50.499s-79.667 35.5 -126 63.5s-80.5 62.833 -102.5 104.5s-33 91.167 -33 148.5c0 104 39.667 189 119 255s179 101.667 299 107v187h94v-187
c166.667 -13.333 300 -76.666 400 -189.999l-78 -86c-80.667 96.667 -188 152.667 -322 168v-516c64 -18 116.833 -35.5 158.5 -52.5s85.834 -40.5 132.501 -70.5s81.5 -67.833 104.5 -113.5s34.5 -100.167 34.5 -163.5c0 -96.667 -34.333 -182.5 -103 -257.5
s-177.667 -117.5 -327 -127.5v-182h-94v182c-196.667 10 -350.334 82 -461.001 216zM264.002 1030c0 -65.333 25.333 -115.168 76 -149.501s123.667 -65.166 219 -92.499v492c-86 -4 -156.667 -29.333 -212 -76s-83 -104.667 -83 -174zM653.002 83.998
c108 8 186.333 38.668 235 92.001s73 112.666 73 177.999c0 75.333 -26.333 132.833 -79 172.5s-129 74.5 -229 104.5v-547z" />
    <glyph glyph-name="percent" unicode="%" horiz-adv-x="1474" 
d="M70 1049c0 96.667 30 177 90 241s136.333 96 229 96c94 0 171.167 -32 231.5 -96s90.5 -144.333 90.5 -241c0 -95.333 -30.167 -174.833 -90.5 -238.5s-137.5 -95.5 -231.5 -95.5c-92.667 0 -169 31.833 -229 95.5s-90 143.167 -90 238.5zM164 1049
c0 -69.333 21.167 -129 63.5 -179s96.166 -75 161.499 -75s119.5 24.833 162.5 74.5s64.5 109.5 64.5 179.5c0 72.667 -21.167 133.834 -63.5 183.501s-96.833 74.5 -163.5 74.5c-65.333 0 -119.166 -24.833 -161.499 -74.5s-63.5 -110.834 -63.5 -183.501zM262 0l873 1366
h94l-875 -1366h-92zM764 309c0 96.667 30 177.167 90 241.5s137.167 96.5 231.5 96.5s171.5 -32 231.5 -96s90 -144.667 90 -242c0 -95.333 -30 -174.833 -90 -238.5s-137.167 -95.5 -231.5 -95.5s-171.5 31.833 -231.5 95.5s-90 143.167 -90 238.5zM858 309
c0 -70.667 21.167 -130.667 63.5 -180s97 -74 164 -74s121.333 24.667 163 74s62.5 109.333 62.5 180c0 72.667 -20.833 133.834 -62.5 183.501s-96 74.5 -163 74.5s-121.667 -24.833 -164 -74.5s-63.5 -110.834 -63.5 -183.501z" />
    <glyph glyph-name="ampersand" unicode="&#x26;" horiz-adv-x="1308" 
d="M86 348c0 98 26.665 178.17 79.998 240.503s128.333 120.166 225 173.499c-75.333 118.667 -112.666 223 -111.999 313c0 88.667 31.333 162.667 94 222s139.667 89 231 89c86 0 155.333 -22.833 208 -68.5s79 -108.834 79 -189.501c0 -39.333 -7.5 -76.333 -22.5 -111
s-31.333 -63.334 -49 -86.001s-45.667 -47.667 -84 -75s-68.833 -47.5 -91.5 -60.5l-107 -58.5c39.333 -54.667 98 -126.334 176 -215.001c70.667 -80.667 131.334 -146.667 182.001 -198c66.667 100 118.667 210.333 156 331l98 -41
c-64 -161.333 -124 -282.666 -180 -363.999c82 -82 170 -165.333 264 -250h-160c-52 45.333 -110 100 -174 164c-112 -125.333 -245.667 -188.333 -401 -189c-118.667 0 -217 32.833 -295 98.5s-117 157.167 -117 274.5zM204.998 354.003
c0 -88.667 29.332 -158.167 87.999 -208.5s129.667 -75.5 213 -75.5c118.667 0 226.334 55.333 323.001 166c-104 105.333 -171.333 178.333 -202 219c-72.667 82 -134.334 159 -185.001 231c-75.333 -45.333 -133.666 -93.5 -174.999 -144.5s-62 -113.5 -62 -187.5z
M392.997 1073c0 -74 31.335 -160.667 94.002 -260c50.667 26 89 47.167 115 63.5s55.667 37.5 89 63.5s57.166 54 71.499 84s21.5 63.333 21.5 100c0 54.667 -16.667 97 -50 127s-76 45 -128 45c-58.667 0 -108.834 -21.167 -150.501 -63.5s-62.5 -95.5 -62.5 -159.5z" />
    <glyph glyph-name="quotesingle" unicode="'" horiz-adv-x="382" 
d="M119 1313c0 20.667 6.83301 38 20.5 52s31.5 21 53.5 21c20.667 0 38 -7.16699 52 -21.5s21 -31.5 21 -51.5l-43 -439h-61c-28.667 274.667 -43 421 -43 439z" />
    <glyph glyph-name="parenleft" unicode="(" horiz-adv-x="464" 
d="M92 497.5c0 326.333 91.667 628.168 275 905.501l63 -45c-72.667 -148.667 -127 -288 -163 -418s-54 -277.5 -54 -442.5s18.167 -312.333 54.5 -442s90.5 -267.5 162.5 -413.5l-63 -50c-183.333 277.333 -275 579.166 -275 905.499z" />
    <glyph glyph-name="parenright" unicode=")" horiz-adv-x="464" 
d="M35 -358l63 -49.998c182.667 277.333 274.167 579.166 274.5 905.499s-91.167 628.166 -274.5 905.499l-63 -45c72.667 -148.667 127 -288 163 -418s54 -277.5 54 -442.5s-18 -312.333 -54 -442s-90.333 -267.5 -163 -413.5z" />
    <glyph glyph-name="asterisk" unicode="*" horiz-adv-x="686" 
d="M76 993l213 109l-213 108l39 68l200 -131l-10 239h76l-12 -239l202 131l39 -68l-215 -108l215 -109l-39 -67l-202 131l12 -240h-76l10 240l-200 -131z" />
    <glyph glyph-name="plus" unicode="+" horiz-adv-x="1015" 
d="M59 647v86h404v432h92v-432h401v-86h-401v-444h-92v444h-404z" />
    <glyph glyph-name="comma" unicode="," horiz-adv-x="448" 
d="M119 -201c32.667 22 59.833 51.168 81.5 87.501s34.167 70.166 37.5 101.499c-9.33301 -1.33301 -16.333 -2 -21 -2c-24.667 0 -44.834 8.16699 -60.501 24.5s-23.5 36.833 -23.5 61.5c0 23.333 8.5 43.833 25.5 61.5s37.833 26.5 62.5 26.5
c28.667 0 53.334 -11.667 74.001 -35s31 -55.333 31 -96c0 -54.667 -14 -107.667 -42 -159s-63.333 -91.333 -106 -120z" />
    <glyph glyph-name="hyphen" unicode="-" horiz-adv-x="614" 
d="M61 446v99h492v-99h-492z" />
    <glyph glyph-name="period" unicode="." horiz-adv-x="448" 
d="M133 72c0 23.333 9.16699 43.833 27.5 61.5s39.833 26.5 64.5 26.5s45.834 -9 63.501 -27s26.5 -38.333 26.5 -61c0 -24.667 -8.83301 -45.834 -26.5 -63.501s-38.834 -26.5 -63.501 -26.5s-46.167 8.83301 -64.5 26.5s-27.5 38.834 -27.5 63.501z" />
    <glyph glyph-name="slash" unicode="/" horiz-adv-x="577" 
d="M0 -41l485 1448h93l-486 -1448h-92z" />
    <glyph glyph-name="zero" unicode="0" horiz-adv-x="1245" 
d="M119 682c0 86 9.49707 169.001 28.4971 249.001s47.333 154.833 85 224.5s90.334 125.5 158.001 167.5s145.834 63 234.501 63c87.333 0 164.333 -21 231 -63s119.167 -97.833 157.5 -167.5s67 -144.5 86 -224.5s28.5 -163 28.5 -249
c0 -84.667 -9.5 -167.334 -28.5 -248.001s-47.667 -156.167 -86 -226.5s-90.833 -126.666 -157.5 -168.999s-143.667 -63.5 -231 -63.5s-165.166 21.167 -233.499 63.5s-121.333 98.666 -159 168.999s-66 145.5 -85 225.5s-28.5 163 -28.5 249zM241.997 682.001
c0 -75.333 6.83203 -146.666 20.499 -213.999s34.5 -130.833 62.5 -190.5s67.5 -107.167 118.5 -142.5s111.5 -53 181.5 -53c68 0 127.667 17.667 179 53s91 82.833 119 142.5s48.5 123.167 61.5 190.5s19.5 138.666 19.5 213.999s-6.5 146.666 -19.5 213.999
s-33.5 130.833 -61.5 190.5s-67.667 106.834 -119 141.501s-111 52 -179 52c-69.333 0 -129.666 -17.333 -180.999 -52s-91 -81.834 -119 -141.501s-48.833 -123.167 -62.5 -190.5s-20.5 -138.666 -20.5 -213.999z" />
    <glyph glyph-name="one" unicode="1" horiz-adv-x="630" 
d="M53 1049l301 317h107v-1366h-117v1206l-219 -233z" />
    <glyph glyph-name="two" unicode="2" horiz-adv-x="1191" 
d="M115 0v96.001l262 215c65.333 54.667 134.833 116.834 208.5 186.501s130 130.167 169 181.5s71.5 105 97.5 161s39 109.667 39 161c0 91.333 -31 160.666 -93 207.999s-134.667 71 -218 71c-82 0 -155.5 -16 -220.5 -48s-116.5 -75.333 -154.5 -130l-80 74
c49.333 65.333 113.5 116.666 192.5 153.999s166.5 56 262.5 56c113.333 0 213.333 -32.667 300 -98s130 -161 130 -287c0 -72.667 -17.167 -145 -51.5 -217s-88.333 -148 -162 -228s-145.667 -151 -216 -213s-164.833 -141 -283.5 -237h719v-106h-901z" />
    <glyph glyph-name="three" unicode="3" horiz-adv-x="1114" 
d="M66 203l78.998 69.001c88.667 -126.667 216.334 -190 383.001 -190c105.333 0 189 26 251 78s93 123 93 213c0 94 -33.667 163.833 -101 209.5s-155.666 68.5 -264.999 68.5c-57.333 0 -99.666 -1.33301 -126.999 -4v111c13.333 -1.33301 55.666 -2 126.999 -2
c98 0 180.167 21.833 246.5 65.5s99.5 108.5 99.5 194.5c0 82 -31.333 146.5 -94 193.5s-140.667 70.5 -234 70.5c-140.667 0 -262.667 -58 -366 -174l-74 74c113.333 138 262 206.667 446 206c124 0 228.5 -32 313.5 -96s127.5 -152 127.5 -264
c0 -64 -17.167 -120.667 -51.5 -170s-72 -84.5 -113 -105.5s-83.833 -35.5 -128.5 -43.5c74 -8 144.667 -41.5 212 -100.5s101 -138.833 101 -239.5c0 -114.667 -41.333 -208.667 -124 -282s-195 -110 -337 -110c-105.333 0 -198 21.667 -278 65s-142 97.666 -186 162.999z
" />
    <glyph glyph-name="four" unicode="4" horiz-adv-x="1107" 
d="M72 373v104l606 889h158v-887h200v-106h-200v-373h-117v373h-647zM193 479h526v770z" />
    <glyph glyph-name="five" unicode="5" horiz-adv-x="1191" 
d="M152 199l77 76.998c91.333 -130 219 -194.667 383 -194c98 0 179.5 31.333 244.5 94s97.5 141.334 97.5 236.001c0 102.667 -31.667 183.834 -95 243.501s-145 89.5 -245 89.5c-124 0 -234.333 -44.333 -331 -133l-88 37v717h788v-106h-672v-535
c87.333 84.667 196 127 326 127c121.333 0 224.333 -38.5 309 -115.5s127 -183.833 127 -320.5c0 -132.667 -44.333 -239.334 -133 -320.001s-198 -121 -328 -121c-202.667 0.666992 -356 75.334 -460 224.001z" />
    <glyph glyph-name="six" unicode="6" horiz-adv-x="1196" 
d="M119 682c0 124 16.668 237.331 50.001 339.998s90.666 189 171.999 259s181.333 105 300 105c152.667 0 275.667 -58 369 -174l-68 -84c-78 101.333 -178.333 152 -301 152c-70.667 0 -133 -17.333 -187 -52s-96 -81.5 -126 -140.5s-52.5 -122.5 -67.5 -190.5
s-22.5 -140.333 -22.5 -217c0 -28.667 0.666992 -50 2 -64c34 56 87.833 108 161.5 156s152.834 72 237.501 72c130 0 235.833 -37.167 317.5 -111.5s122.5 -181.166 122.5 -320.499c0 -118.667 -41.667 -221.167 -125 -307.5s-194.333 -129.5 -333 -129.5
c-70.667 0 -134.834 13 -192.501 39s-105.667 60.833 -144 104.5s-70 96 -95 157s-43 124.833 -54 191.5s-16.5 138.334 -16.5 215.001zM246.001 505.998c5.33301 -69.333 20.332 -134.168 44.999 -194.501s65 -113.666 121 -159.999s124 -69.5 204 -69.5
c108 0 192.5 33.833 253.5 101.5s91.5 143.167 91.5 226.5c0 108 -31.5 189.833 -94.5 245.5s-145.833 83.5 -248.5 83.5c-74 0 -144.667 -21.5 -212 -64.5s-120.666 -99.167 -159.999 -168.5z" />
    <glyph glyph-name="seven" unicode="7" horiz-adv-x="1028" 
d="M68 1260v106h895v-82l-584 -1284h-129l573 1260h-755z" />
    <glyph glyph-name="eight" unicode="8" 
d="M121 342c0 88.667 32.667 164.834 98 228.501s146 108.5 242 134.5c-90 24.667 -165.5 64.5 -226.5 119.5s-91.5 124.833 -91.5 209.5c0 113.333 44.167 200.333 132.5 261s191.833 91 310.5 91c117.333 0 220.333 -30.333 309 -91s133 -147.667 133 -261
c0 -84.667 -30.333 -154.667 -91 -210s-136 -95 -226 -119c95.333 -26 175.833 -70.833 241.5 -134.5s98.5 -139.834 98.5 -228.501c0 -109.333 -44.167 -197.833 -132.5 -265.5s-199.333 -101.5 -333 -101.5s-244.5 33.833 -332.5 101.5s-132 156.167 -132 265.5zM240 350
c0 -80.667 33.667 -145.5 101 -194.5s149 -73.5 245 -73.5c92.667 0 173.5 24.833 242.5 74.5s103.5 114.167 103.5 193.5c0 49.333 -13.667 93.833 -41 133.5s-61.5 70.667 -102.5 93s-78.5 39.666 -112.5 51.999s-64 19.833 -90 22.5
c-26 -2.66699 -56.5 -10.167 -91.5 -22.5s-72.5 -29.666 -112.5 -51.999s-73.667 -53.333 -101 -93s-41 -84.167 -41 -133.5zM262 1022c0 -44 12.3301 -83.333 36.9971 -118s56.834 -62.167 96.501 -82.5s73.834 -35.333 102.501 -45s58 -17.167 88 -22.5
c30 5.33301 59.333 13.166 88 23.499s62.834 25.333 102.501 45s71.667 46.834 96 81.501s36.5 74 36.5 118c0 79.333 -30.667 142.166 -92 188.499s-138.5 69.5 -231.5 69.5s-170.167 -23.167 -231.5 -69.5s-92 -109.166 -92 -188.499z" />
    <glyph glyph-name="nine" unicode="9" horiz-adv-x="1196" 
d="M117 952c0 118.667 41.665 221.168 124.998 307.501s194.333 129.5 333 129.5c70.667 0 134.834 -13 192.501 -39s105.667 -60.833 144 -104.5s70 -96 95 -157s43 -124.833 54 -191.5s16.5 -138.334 16.5 -215.001c0 -72.667 -5.83301 -142 -17.5 -208
s-31 -129.833 -58 -191.5s-60 -114.667 -99 -159s-88.5 -79.833 -148.5 -106.5s-126.333 -40 -199 -40c-152.667 0 -275.667 58.333 -369 175l70 84c78 -101.333 177.667 -152 299 -152c72.667 0 135.834 17.333 189.501 52s95.5 81.834 125.5 141.501
s52.167 123.167 66.5 190.5s21.5 139.333 21.5 216v64c-34 -56 -88.167 -108 -162.5 -156s-153.833 -72 -238.5 -72c-130 0 -235.833 37.167 -317.5 111.5s-122.5 181.166 -122.5 320.499zM235.998 954.001c0 -108 31.333 -189.831 94 -245.498s145.334 -83.5 248.001 -83.5
c74 0 144.667 21.5 212 64.5s120.666 99.167 159.999 168.5c-5.33301 69.333 -20 134.166 -44 194.499s-64.333 113.666 -121 159.999s-125 69.5 -205 69.5c-108 0 -192.333 -33.833 -253 -101.5s-91 -143.167 -91 -226.5z" />
    <glyph glyph-name="colon" unicode=":" horiz-adv-x="444" 
d="M133 72c0 23.333 9.16699 43.833 27.5 61.5s39.833 26.5 64.5 26.5s45.834 -9 63.501 -27s26.5 -38.333 26.5 -61c0 -24.667 -8.83301 -45.834 -26.5 -63.501s-38.834 -26.5 -63.501 -26.5s-46.167 8.83301 -64.5 26.5s-27.5 38.834 -27.5 63.501zM133 913
c0 24.667 9.16699 46 27.5 64s39.833 27 64.5 27s45.834 -9 63.501 -27s26.5 -39.333 26.5 -64c0 -23.333 -8.83301 -43.833 -26.5 -61.5s-38.834 -26.5 -63.501 -26.5s-46.167 8.83301 -64.5 26.5s-27.5 38.167 -27.5 61.5z" />
    <glyph glyph-name="semicolon" unicode=";" horiz-adv-x="448" 
d="M119 -199c32.667 22 59.833 51.1699 81.5 87.5029s34.167 70.166 37.5 101.499c-9.33301 -1.33301 -16.333 -2 -21 -2c-24.667 0 -44.834 8.16699 -60.501 24.5s-23.5 36.833 -23.5 61.5c0 23.333 8.5 43.833 25.5 61.5s37.833 26.5 62.5 26.5
c28.667 0 53.334 -12 74.001 -36s31 -56.333 31 -97c0 -54.667 -14 -107.334 -42 -158.001s-63.333 -90.334 -106 -119.001zM132.999 913.003c0 24.667 9.16699 46 27.5 64s39.833 27 64.5 27s45.834 -9 63.501 -27s26.5 -39.333 26.5 -64
c0 -23.333 -8.83301 -43.833 -26.5 -61.5s-38.834 -26.5 -63.501 -26.5s-46.167 8.83301 -64.5 26.5s-27.5 38.167 -27.5 61.5z" />
    <glyph glyph-name="less" unicode="&#x3c;" horiz-adv-x="1015" 
d="M59 647v76l897 465v-101l-788 -403l788 -399v-101z" />
    <glyph glyph-name="equal" unicode="=" horiz-adv-x="1015" 
d="M59 442v84h897v-84h-897zM59 842v86h897v-86h-897z" />
    <glyph glyph-name="greater" unicode="&#x3e;" horiz-adv-x="1015" 
d="M59 184v101l791 399l-791 403v101l897 -465v-76z" />
    <glyph glyph-name="question" unicode="?" horiz-adv-x="950" 
d="M45 1171c105.333 143.333 252 215.001 440 215.001c118.667 0 213.667 -30.333 285 -91s107 -135.334 107 -224.001c0 -57.333 -14.333 -109.166 -43 -155.499s-63.5 -84.5 -104.5 -114.5s-82 -58.333 -123 -85s-75.833 -56.834 -104.5 -90.501s-43 -70.167 -43 -109.5
s20.333 -74 61 -104l-82 -52c-56 46.667 -84 100.667 -84 162c0 49.333 13.667 93.833 41 133.5s60.5 73.167 99.5 100.5l118 81c39.667 26.667 73.167 58.667 100.5 96s41 79.333 41 126c0 62.667 -24.333 115.167 -73 157.5s-116 63.5 -202 63.5
c-148.667 0 -268.667 -61.333 -360 -184zM367 72.001c0 23.333 8.83301 43.833 26.5 61.5s38.834 26.5 63.501 26.5s45.834 -9 63.501 -27s26.5 -38.333 26.5 -61c0 -24.667 -8.83301 -45.834 -26.5 -63.501s-38.834 -26.5 -63.501 -26.5s-45.834 8.83301 -63.501 26.5
s-26.5 38.834 -26.5 63.501z" />
    <glyph glyph-name="at" unicode="@" horiz-adv-x="1603" 
d="M72 500c0 144.667 37.832 279.498 113.499 404.498s176 223.333 301 295s257.833 107.5 398.5 107.5c190 0 345 -63.167 465 -189.5s180 -283.166 180 -470.499c0 -147.333 -32.5 -263 -97.5 -347s-143.167 -126 -234.5 -126c-53.333 0 -96.333 17 -129 51
s-49.667 75 -51 123l-2 12c-38 -53.333 -87.167 -97.666 -147.5 -132.999s-123.166 -53 -188.499 -53c-94 0 -169.667 29.667 -227 89s-86 139 -86 239c0 143.333 50.167 266.166 150.5 368.499s213.166 153.5 338.499 153.5c64 0 119 -16 165 -48s79.667 -72.667 101 -122
l27 133h100l-121 -577c-2.66699 -16.667 -4 -29.667 -4 -39c0 -34 10 -61.333 30 -82s44.333 -31 73 -31c54.667 0 107.834 31.833 159.501 95.5s77.5 162.167 77.5 295.5c0 170.667 -54.5 312 -163.5 424s-249.5 168 -421.5 168c-198 0 -371.167 -74.667 -519.5 -224
s-222.5 -321 -222.5 -515c0 -165.333 56 -303.666 168 -414.999s253.333 -167 424 -167c131.333 0 259 39 383 117l35 -51c-134 -86 -276 -129 -426 -129c-186 0 -340.667 61.833 -464 185.5s-185 276.167 -185 457.5zM472.999 505.998
c0 -72.667 20.499 -131.833 61.499 -177.5s96.167 -68.5 165.5 -68.5c131.333 0 243.333 68.333 336 205l66 303c-15.333 44 -42.666 83.333 -81.999 118s-90 52 -152 52c-108 0 -200.833 -44 -278.5 -132s-116.5 -188 -116.5 -300z" />
    <glyph glyph-name="A" unicode="A" horiz-adv-x="1325" 
d="M31 0l559 1366h145l559 -1366h-135l-135 336h-723l-135 -336h-135zM340 442h645l-321 799z" />
    <glyph glyph-name="B" unicode="B" horiz-adv-x="1259" 
d="M170 0l-0.000976562 1366h561c114.667 0 206.167 -31.333 274.5 -94s102.5 -147.334 102.5 -254.001c0 -82 -23.5 -151.333 -70.5 -208s-103.5 -91.667 -169.5 -105c72.667 -10.667 135.334 -49.334 188.001 -116.001s79 -140 79 -220
c0 -113.333 -34.833 -203.166 -104.5 -269.499s-165.5 -99.5 -287.5 -99.5h-573zM286.999 106.001l438 0.000976562c90 0 160.333 24.333 211 73s76 114.667 76 198c0 75.333 -25.333 139.166 -76 191.499s-121 78.5 -211 78.5h-438v-541zM286.999 754.002h430
c84.667 0 150.5 23.5 197.5 70.5s70.5 107.5 70.5 181.5c0 72.667 -23.5 133.167 -70.5 181.5s-112.833 72.5 -197.5 72.5h-430v-506z" />
    <glyph glyph-name="C" unicode="C" horiz-adv-x="1374" 
d="M119 682c0 207.333 66.168 377.001 198.501 509.001s296.833 198 493.5 198c204.667 0 370.667 -80.667 498 -242l-99 -64c-44 60 -101.333 108.167 -172 144.5s-146.334 54.5 -227.001 54.5c-162.667 0 -298.167 -56 -406.5 -168s-162.5 -256 -162.5 -432
c0 -174.667 54.5 -318.334 163.5 -431.001s244.167 -169 405.5 -169c80.667 0 156.5 18 227.5 54s128.167 84.333 171.5 145l101 -62c-134 -162.667 -300.667 -244 -500 -244c-196.667 0 -361.167 66 -493.5 198s-198.5 301.667 -198.5 509z" />
    <glyph glyph-name="D" unicode="D" horiz-adv-x="1417" 
d="M170 0v1366h436c206 0 372.5 -65.833 499.5 -197.5s190.5 -293.834 190.5 -486.501c0 -194 -63 -356.167 -189 -486.5s-293 -195.5 -501 -195.5h-436zM287 106.001l319 0.000976562c174.667 0 313 54.667 415 164s153 246.666 153 411.999s-50.667 303 -152 413
s-240 165 -416 165h-319v-1154z" />
    <glyph glyph-name="E" unicode="E" horiz-adv-x="1155" 
d="M170 0v1366h866v-106h-749v-506h735v-107h-735v-541h749v-106h-866z" />
    <glyph glyph-name="F" unicode="F" horiz-adv-x="1110" 
d="M170 0v1366h866v-106h-749v-506h735v-107h-735v-647h-117z" />
    <glyph glyph-name="G" unicode="G" horiz-adv-x="1456" 
d="M119 682c0 207.333 66.502 377 199.502 509s297.167 198 492.5 198c207.333 0 378.666 -78 513.999 -234l-88 -63c-49.333 58.667 -111.166 105 -185.499 139s-154.5 51 -240.5 51c-162.667 0 -298.167 -56 -406.5 -168s-162.5 -256 -162.5 -432
c0 -174.667 54.5 -318.667 163.5 -432s244.167 -170 405.5 -170c83.333 0 160.166 16.333 230.499 49s127.166 71.667 170.499 117v327h-516v105h633v-477c-135.333 -151.333 -308 -227.333 -518 -228c-195.333 0 -359.5 66.333 -492.5 199s-199.5 302.667 -199.5 510z" />
    <glyph glyph-name="H" unicode="H" horiz-adv-x="1439" 
d="M170 0v1366h117v-610h866v610h117v-1366h-117v649h-866v-649h-117z" />
    <glyph glyph-name="I" unicode="I" horiz-adv-x="456" 
d="M170 0v1366h117v-1366h-117z" />
    <glyph glyph-name="J" unicode="J" horiz-adv-x="962" 
d="M29 143l70.999 90c75.333 -101.333 166.333 -151.666 273 -150.999c92.667 0 166.334 29 221.001 87s82 133.333 82 226v971h117v-971c0 -136.667 -39 -240.834 -117 -312.501s-177 -107.5 -297 -107.5c-147.333 0 -264 56 -350 168z" />
    <glyph glyph-name="K" unicode="K" horiz-adv-x="1200" 
d="M170 0v1366h117v-748l659 748h150l-582 -651l637 -715h-150l-563 643l-151 -166v-477h-117z" />
    <glyph glyph-name="L" unicode="L" horiz-adv-x="991" 
d="M141 0v1366h119v-1260h662v-106h-781z" />
    <glyph glyph-name="M" unicode="M" horiz-adv-x="1617" 
d="M170 0v1366h174l465 -1137l463 1137h176v-1366h-119v1219l-498 -1219h-45l-499 1219v-1219h-117z" />
    <glyph glyph-name="N" unicode="N" horiz-adv-x="1431" 
d="M170 0v1366h119l856 -1157v1157h117v-1366h-115l-860 1174v-1174h-117z" />
    <glyph glyph-name="O" unicode="O" horiz-adv-x="1564" 
d="M119 682c0 203.333 61 372 183 506s282 201 480 201c196.667 0 356.5 -67 479.5 -201s184.5 -302.667 184.5 -506s-61.5 -372 -184.5 -506s-282.833 -201 -479.5 -201c-198 0 -358 67 -480 201s-183 302.667 -183 506zM242 682c0 -174.667 49.5 -318.334 148.5 -431.001
s229.5 -169 391.5 -169c161.333 0 291.833 56.333 391.5 169s149.5 256.334 149.5 431.001s-49.5 318.334 -148.5 431.001s-229.667 169 -392 169s-293 -56.333 -392 -169s-148.5 -256.334 -148.5 -431.001z" />
    <glyph glyph-name="P" unicode="P" 
d="M170 0v1366h512c126.667 0 227 -38.5 301 -115.5s111 -171.5 111 -283.5s-37.333 -206.667 -112 -284s-174.667 -116 -300 -116h-395v-567h-117zM287 674h383c90 0 162.667 27.333 218 82s83 125 83 211s-27.667 156.333 -83 211s-128 82 -218 82h-383v-586z" />
    <glyph glyph-name="Q" unicode="Q" horiz-adv-x="1564" 
d="M119 682c0 203.333 61 372 183 506s282 201 480 201c196.667 0 356.5 -67 479.5 -201s184.5 -302.667 184.5 -506c0 -208.667 -65 -380 -195 -514l144 -150l-80 -73l-146 149c-109.333 -79.333 -238.333 -119 -387 -119c-198 0 -358 67 -480 201s-183 302.667 -183 506z
M242 682c0 -174.667 49.501 -318.333 148.501 -431s229.5 -169 391.5 -169c117.333 0 220.666 31.333 309.999 94l-211 219l82 76l211 -221c100 114.667 149.667 258.667 149 432c0 174.667 -49.5 318.334 -148.5 431.001s-229.667 169 -392 169s-293 -56.333 -392 -169
s-148.5 -256.334 -148.5 -431.001z" />
    <glyph glyph-name="R" unicode="R" horiz-adv-x="1216" 
d="M170 0v1366h510c120 0 219.333 -36.167 298 -108.5s118 -169.166 118 -290.499c0 -118.667 -36.167 -212.834 -108.5 -282.501s-162.5 -106.834 -270.5 -111.501l395 -573h-141l-383 565h-301v-565h-117zM287 672.001h383c90 0 163 27.667 219 83s84 126 84 212
s-28 156.333 -84 211s-129 82 -219 82h-383v-588z" />
    <glyph glyph-name="S" unicode="S" horiz-adv-x="1189" 
d="M94 193l75.999 87.998c116 -132.667 258.667 -199 428 -199c125.333 0 216.333 27.667 273 83s85 118.333 85 189c0 54.667 -15 100.834 -45 138.501s-69.167 66.667 -117.5 87s-101.5 38.666 -159.5 54.999s-116 33.833 -174 52.5s-111.333 40.667 -160 66
s-88 60.833 -118 106.5s-45 100.5 -45 164.5c0 109.333 43 197.5 129 264.5s192.667 100.5 320 100.5c198 0 352.333 -64.333 463 -193l-78 -86c-95.333 114.667 -225.666 172 -390.999 172c-91.333 0 -167.5 -23.5 -228.5 -70.5s-91.5 -107.5 -91.5 -181.5
c0 -46.667 15 -86.667 45 -120s69.333 -59.166 118 -77.499s102 -35.333 160 -51s116 -33.5 174 -53.5s111.167 -43.667 159.5 -71s87.5 -65.833 117.5 -115.5s45 -109.5 45 -179.5c0 -104 -38.833 -194.5 -116.5 -271.5s-200.5 -115.5 -368.5 -115.5
c-212 0.666992 -378.667 73.334 -500 218.001z" />
    <glyph glyph-name="T" unicode="T" horiz-adv-x="1155" 
d="M72 1260v106h1011v-106h-446v-1260h-119v1260h-446z" />
    <glyph glyph-name="U" unicode="U" horiz-adv-x="1404" 
d="M170 524v841.999h119v-840c0 -139.333 35.833 -248.166 107.5 -326.499s173.667 -117.5 306 -117.5s234.333 39.167 306 117.5s107.5 187.166 107.5 326.499v840h119v-842c0 -172 -45.333 -306.5 -136 -403.5s-223 -145.5 -397 -145.5c-172 0 -303.667 48.833 -395 146.5
s-137 231.834 -137 402.501z" />
    <glyph glyph-name="V" unicode="V" horiz-adv-x="1325" 
d="M31 1366h135l498 -1235l495 1235h135l-559 -1366h-145z" />
    <glyph glyph-name="W" unicode="W" horiz-adv-x="1775" 
d="M39 1366h131l330 -1202l336 1202h106l334 -1202l330 1202h131l-389 -1366h-131l-328 1174l-328 -1174h-131z" />
    <glyph glyph-name="X" unicode="X" horiz-adv-x="1320" 
d="M39 0l549 700l-518 666h147l442 -580l445 580h147l-518 -664l549 -702h-145l-478 616l-475 -616h-145z" />
    <glyph glyph-name="Y" unicode="Y" horiz-adv-x="1265" 
d="M31 1366h141l461 -672l461 672h141l-543 -782v-584h-119v584z" />
    <glyph glyph-name="Z" unicode="Z" horiz-adv-x="1189" 
d="M102 0v102l824 1158h-824v106h971v-100l-823 -1160h837v-106h-985z" />
    <glyph glyph-name="bracketleft" unicode="[" horiz-adv-x="466" 
d="M76 -389v1778h356v-89h-266v-1601h266v-88h-356z" />
    <glyph glyph-name="backslash" unicode="\" horiz-adv-x="577" 
d="M0 1407h92l486 -1448h-93z" />
    <glyph glyph-name="bracketright" unicode="]" horiz-adv-x="466" 
d="M35 -301h266v1601h-266v89h356v-1778h-356v88z" />
    <glyph glyph-name="asciicircum" unicode="^" horiz-adv-x="876" 
d="M39 682l356 684h86l357 -684h-99l-301 600l-301 -600h-98z" />
    <glyph glyph-name="underscore" unicode="_" horiz-adv-x="1155" 
d="M-6 -82h1167v-88h-1167v88z" />
    <glyph glyph-name="uni02CB" unicode="`" horiz-adv-x="442" 
d="M0 1434h127l315 -295h-90z" />
    <glyph glyph-name="uni02CB" unicode="&#x2cb;" horiz-adv-x="442" 
d="M0 1434h127l315 -295h-90z" />
    <glyph glyph-name="a" unicode="a" horiz-adv-x="1067" 
d="M113 305c0 102.667 34.333 182.999 103 240.999s149.667 87 243 87c139.333 0 251.333 -47 336 -141v200c0 70.667 -25 126.334 -75 167.001s-113.333 61 -190 61c-122.667 0 -226.334 -48.667 -311.001 -146l-59 74c102.667 110.667 229.667 166 381 166
c106.667 0 193.334 -26.667 260.001 -80s100 -132.666 100 -237.999v-696h-106v117c-86 -94 -198 -141.333 -336 -142c-91.333 0 -171.833 29.667 -241.5 89s-104.5 139.666 -104.5 240.999zM225 303.499c0 -71 25 -129.5 75 -175.5s115.333 -69 196 -69
c130 0 229.667 45.333 299 136v217c-69.333 91.333 -169 137 -299 137c-80.667 0 -146 -23.167 -196 -69.5s-75 -105 -75 -176z" />
    <glyph glyph-name="b" unicode="b" 
d="M166 0l0.000976562 1366h106v-537c87.333 122.667 202 184.334 344 185.001c132.667 0 239.667 -47.5 321 -142.5s122 -221 122 -378s-40.667 -282.667 -122 -377s-188.333 -141.5 -321 -141.5c-70.667 0 -136.334 17.167 -197.001 51.5s-109.667 78.166 -147 131.499
v-158h-106zM272.001 248c30 -49.333 75.167 -91 135.5 -125s123.833 -51 190.5 -51c108 0 192.667 39.5 254 118.5s92 180.167 92 303.5c0 124 -30.667 225.667 -92 305s-146 119 -254 119c-65.333 0 -128.5 -17.833 -189.5 -53.5s-106.5 -78.167 -136.5 -127.5v-489z" />
    <glyph glyph-name="c" unicode="c" horiz-adv-x="1011" 
d="M111 495.5c0 147.667 44.333 271 133 370s204 148.5 346 148.5c144.667 0 261.334 -56 350.001 -168l-74 -66c-66.667 91.333 -156.667 137.166 -270 137.499s-203.833 -39.5 -271.5 -119.5s-101.5 -180.833 -101.5 -302.5s33.833 -222.667 101.5 -303
s158.167 -120.5 271.5 -120.5c112 0 202 46.333 270 139l74 -66c-88.667 -113.333 -205.334 -170 -350.001 -170c-142 0 -257.333 49.833 -346 149.5s-133 223.334 -133 371.001z" />
    <glyph glyph-name="d" unicode="d" 
d="M111 494c0 155.333 40.502 280.833 121.502 376.5s187.167 143.5 318.5 143.5c69.333 0 134.166 -16.5 194.499 -49.5s110.166 -78.167 149.499 -135.5v537h109v-1366h-109v158c-36.667 -53.333 -85.5 -97.166 -146.5 -131.499s-126.833 -51.5 -197.5 -51.5
c-132.667 0 -239.167 47.167 -319.5 141.5s-120.5 220.166 -120.5 377.499zM223.002 493.5c0 -123 31.167 -224 93.5 -303s146.5 -118.5 252.5 -118.5c66.667 0 130.167 17 190.5 51s105.5 75.667 135.5 125v489c-30 50.667 -75 93.5 -135 128.5s-123.667 52.5 -191 52.5
c-106.667 0 -191 -40 -253 -120s-93 -181.5 -93 -304.5z" />
    <glyph glyph-name="e" unicode="e" horiz-adv-x="1161" 
d="M111 496c0 144.667 45 267.168 135 367.501s203.333 150.5 340 150.5c144.667 0 258.667 -49.833 342 -149.5s125 -224.834 125 -375.501v-28h-828c5.33301 -112 42.833 -205.5 112.5 -280.5s161.167 -112.5 274.5 -112.5c131.333 0 239.333 45.667 324 137l55 -70
c-102.667 -106.667 -231.667 -160 -387 -160c-144.667 0 -263 48.667 -355 146s-138 222.333 -138 375zM225 545.001h719c-1.33301 95.333 -33 182 -95 260s-150.333 117 -265 117c-108 0 -193.833 -38.667 -257.5 -116s-97.5 -164.333 -101.5 -261z" />
    <glyph glyph-name="f" unicode="f" horiz-adv-x="542" 
d="M37 895l-0.000976562 94h164v90c0 95.333 23.833 170.333 71.5 225s113.167 82 196.5 82c72.667 0 135.334 -23 188.001 -69l-51 -78c-36.667 34 -79 51 -127 51c-113.333 0 -170 -70.333 -170 -211v-90h201v-94h-201v-895h-108v895h-164z" />
    <glyph glyph-name="g" unicode="g" horiz-adv-x="1167" 
d="M111 496c0 155.333 40.5 280.502 121.5 375.502s187.167 142.5 318.5 142.5c142 0 256.667 -61.667 344 -185v160h109v-981c0 -142 -41.333 -245.667 -124 -311s-189.667 -98 -321 -98c-87.333 0 -160.333 10.5 -219 31.5s-116 60.167 -172 117.5l61 86
c42 -50.667 88.667 -86.5 140 -107.5s114.666 -31.5 189.999 -31.5c96.667 0 176.834 25.833 240.501 77.5s95.5 130.167 95.5 235.5v158c-36.667 -54.667 -85.5 -99.334 -146.5 -134.001s-126.833 -52 -197.5 -52c-132.667 0 -239.167 46.667 -319.5 140
s-120.5 218.666 -120.5 375.999zM223 495.502c0 -123 31.167 -223.668 93.5 -302.001s146.5 -117.5 252.5 -117.5c66.667 0 130.167 17.333 190.5 52s105.5 77.334 135.5 128.001v481c-30 50.667 -75 93.5 -135 128.5s-123.667 52.5 -191 52.5
c-106.667 0 -191 -39.667 -253 -119s-93 -180.5 -93 -303.5z" />
    <glyph glyph-name="h" unicode="h" horiz-adv-x="1105" 
d="M166 0v1366h106v-526c39.333 46.667 91.833 87.334 157.5 122.001s132.167 52 199.5 52c207.333 0 311 -106 311 -318v-696h-106v674c0 90 -20.5 153.167 -61.5 189.5s-100.5 54.5 -178.5 54.5c-61.333 0 -122 -16.5 -182 -49.5s-106.667 -73.167 -140 -120.5v-748h-106z
" />
    <glyph glyph-name="i" unicode="i" horiz-adv-x="438" 
d="M137 1227c0 22 8.16699 40.833 24.5 56.5s35.5 23.5 57.5 23.5c23.333 0 42.833 -7.83301 58.5 -23.5s23.5 -34.5 23.5 -56.5c0 -23.333 -7.83301 -42.833 -23.5 -58.5s-35.167 -23.5 -58.5 -23.5c-22 0 -41.167 8.16699 -57.5 24.5s-24.5 35.5 -24.5 57.5zM166 0v989
h106v-989h-106z" />
    <glyph glyph-name="j" unicode="j" horiz-adv-x="438" 
d="M-199 -326l47.001 87.999c45.333 -45.333 94 -67.833 146 -67.5s93.667 15.5 125 45.5s47 75 47 135v1114h106v-1114c0 -91.333 -23.167 -160.166 -69.5 -206.499s-112.5 -69.5 -198.5 -69.5c-76.667 -0.666992 -144.334 24.333 -203.001 75zM137.001 1227
c0 22 8.16699 40.833 24.5 56.5s35.5 23.5 57.5 23.5c23.333 0 42.833 -7.83301 58.5 -23.5s23.5 -34.5 23.5 -56.5c0 -23.333 -7.83301 -42.833 -23.5 -58.5s-35.167 -23.5 -58.5 -23.5c-22 0 -41.167 8.16699 -57.5 24.5s-24.5 35.5 -24.5 57.5z" />
    <glyph glyph-name="k" unicode="k" horiz-adv-x="1034" 
d="M166 0v1366h106v-942l582 565h143l-460 -446l458 -543h-143l-395 471l-185 -174v-297h-106z" />
    <glyph glyph-name="l" unicode="l" horiz-adv-x="438" 
d="M166 0v1366h106v-1366h-106z" />
    <glyph glyph-name="m" unicode="m" horiz-adv-x="1615" 
d="M166 0l-0.000976562 989.001h106v-149c24.667 39.333 68.167 78.166 130.5 116.499s125.5 57.5 189.5 57.5c72.667 0 130.667 -17.833 174 -53.5s72 -80.167 86 -133.5c30 49.333 75.667 92.833 137 130.5s125 56.5 191 56.5c180 0 270 -100.333 270 -301v-713h-107v692
c0 150 -66 225.333 -198 226c-52 0 -105 -16.5 -159 -49.5s-95.333 -72.5 -124 -118.5v-750h-108v692c0 150 -65.667 225.333 -197 226c-52 0 -104.667 -16.833 -158 -50.5s-95.666 -73.5 -126.999 -119.5v-748h-106z" />
    <glyph glyph-name="n" unicode="n" horiz-adv-x="1105" 
d="M166 0v988.999h106v-149c39.333 46.667 91.833 87.334 157.5 122.001s132.167 52 199.5 52c207.333 0 311 -107.333 311 -322v-692h-106v670c0 90 -20.5 153.833 -61.5 191.5s-100.5 56.5 -178.5 56.5c-61.333 0 -122 -16.5 -182 -49.5s-106.667 -73.167 -140 -120.5
v-748h-106z" />
    <glyph glyph-name="o" unicode="o" 
d="M111 495.5c0 147.667 43.333 271 130 370s201 148.5 343 148.5c143.333 0 258.666 -49.5 345.999 -148.5s131 -222.333 131 -370s-43.667 -271.334 -131 -371.001s-202.666 -149.5 -345.999 -149.5c-142 0 -256.333 49.833 -343 149.5s-130 223.334 -130 371.001z
M223 496c0 -116 32.5 -215.667 97.5 -299s152.833 -125 263.5 -125c112 0 200.333 41.167 265 123.5s97 182.5 97 300.5c0 116 -32.333 215.333 -97 298s-153 124 -265 124c-110.667 0 -198.5 -41.333 -263.5 -124s-97.5 -182 -97.5 -298z" />
    <glyph glyph-name="p" unicode="p" horiz-adv-x="1161" 
d="M166 -377v1366h106v-155c36.667 53.333 85.5 96.666 146.5 129.999s126.833 50 197.5 50c132.667 0 239.667 -46.833 321 -140.5s122 -219.5 122 -377.5c0 -157.333 -40.667 -283.5 -122 -378.5s-188.333 -142.5 -321 -142.5c-142 0 -256.667 61.667 -344 185v-537h-106z
M272 252.001c30 -49.333 75.5 -91.668 136.5 -127.001s124.167 -53 189.5 -53c108 0 192.667 39.5 254 118.5s92 180.833 92 305.5c0 122.667 -30.667 223.667 -92 303s-146 119 -254 119c-66.667 0 -130.167 -17.167 -190.5 -51.5s-105.5 -76.166 -135.5 -125.499v-489z
" />
    <glyph glyph-name="q" unicode="q" horiz-adv-x="1161" 
d="M102 496c0 158.667 40.667 284.669 122 378.002s188.333 140 321 140c70.667 0 136.5 -16.833 197.5 -50.5s109.833 -76.834 146.5 -129.501v155h106v-1366h-106v537c-87.333 -122.667 -202 -184.334 -344 -185.001c-132.667 0 -239.667 47.5 -321 142.5
s-122 221.167 -122 378.5zM217 496.002c0 -124 30.667 -225.665 92 -304.998s146 -119 254 -119c65.333 0 128.5 17.667 189.5 53s106.5 77.666 136.5 126.999v489c-30 49.333 -75 91.166 -135 125.499s-123.667 51.5 -191 51.5c-108 0 -192.667 -39.667 -254 -119
s-92 -180.333 -92 -303z" />
    <glyph glyph-name="r" unicode="r" horiz-adv-x="649" 
d="M166 0l-0.00195312 988.999h106v-170c96.667 126.667 208 190.334 334 191.001v-117c-12 2.66699 -29.667 4 -53 4c-49.333 0 -102.666 -18.5 -159.999 -55.5s-97.666 -77.167 -120.999 -120.5v-721h-106z" />
    <glyph glyph-name="s" unicode="s" horiz-adv-x="940" 
d="M80 133l62.998 78.0029c34 -42 79 -76.667 135 -104s117.667 -41 185 -41c80.667 0 144.834 18.667 192.501 56s71.5 85.333 71.5 144c0 49.333 -21.5 88.333 -64.5 117s-94.833 50.167 -155.5 64.5s-121.834 30 -183.501 47s-114 45.667 -157 86
s-64.5 93.166 -64.5 158.499c0 78 31.833 143.333 95.5 196s149.5 79 257.5 79c148.667 0 266.667 -48.667 354 -146l-59 -75c-64 87.333 -162.333 131 -295 131c-75.333 0 -135.166 -17.167 -179.499 -51.5s-66.5 -77.5 -66.5 -129.5c0 -45.333 21.5 -80.833 64.5 -106.5
s94.833 -45.667 155.5 -60s121.334 -30.333 182.001 -48s112.5 -48.334 155.5 -92.001s64.5 -100.5 64.5 -170.5c0 -84.667 -32 -154.334 -96 -209.001s-155.333 -82 -274 -82c-161.333 0 -288.333 52.667 -381 158z" />
    <glyph glyph-name="t" unicode="t" horiz-adv-x="563" 
d="M23 895v94.001h163v271h109v-271h201v-94h-201v-688c0 -90 34 -135 102 -135c45.333 0 82.333 15.667 111 47l41 -82c-44 -40.667 -100 -61.334 -168 -62.001c-130 0 -195 71.667 -195 215v705h-163z" />
    <glyph glyph-name="u" unicode="u" horiz-adv-x="1105" 
d="M166 293l0.00195312 696h106v-672c0 -91.333 20.5 -155 61.5 -191s100.5 -54 178.5 -54c61.333 0 121.666 15.667 180.999 47s106.333 70.333 141 117v753h106v-989h-106v145c-44 -49.333 -97.333 -90 -160 -122s-128.334 -48 -197.001 -48
c-207.333 0.666992 -311 106.667 -311 318z" />
    <glyph glyph-name="v" unicode="v" horiz-adv-x="985" 
d="M14 989h119l361 -864l356 864h121l-418 -989h-121z" />
    <glyph glyph-name="w" unicode="w" horiz-adv-x="1472" 
d="M35 989h115l262 -839l278 839h92l279 -839l262 839h115l-322 -989h-102l-277 846l-278 -846h-103z" />
    <glyph glyph-name="x" unicode="x" horiz-adv-x="980" 
d="M35 0l391 508l-369 481h127l308 -407l305 407h127l-369 -481l391 -508h-127l-327 436l-330 -436h-127z" />
    <glyph glyph-name="y" unicode="y" horiz-adv-x="985" 
d="M14 989h118.999l361 -864l356 864h121l-512 -1206c-52 -122.667 -136 -184 -252 -184c-39.333 0 -75 4.66699 -107 14l19 98c24.667 -10.667 53.334 -16 86.001 -16c34 0 63 8.83301 87 26.5s45.333 49.167 64 94.5l78 176z" />
    <glyph glyph-name="z" unicode="z" horiz-adv-x="960" 
d="M115 0v88l585 807h-585v94h723v-86l-592 -809h600v-94h-731z" />
    <glyph glyph-name="braceleft" unicode="{" horiz-adv-x="509" 
d="M12 459v81.999c34 0 60.333 14 79 42s28 62.333 28 103v449c0 74 23.167 134.833 69.5 182.5s99.5 71.5 159.5 71.5h127v-89h-127c-38 0 -70.667 -15.667 -98 -47s-41 -70.666 -41 -117.999v-455c0 -94 -30.667 -154 -92 -180c61.333 -26 92 -86.333 92 -181v-454
c0 -48 13.667 -87.667 41 -119s60 -47 98 -47h127v-88h-127c-60 0 -113.167 23.5 -159.5 70.5s-69.5 108.167 -69.5 183.5v448c0 40.667 -9.33301 75.167 -28 103.5s-45 42.5 -79 42.5z" />
    <glyph glyph-name="bar" unicode="|" horiz-adv-x="425" 
d="M170 -41v1448h88v-1448h-88z" />
    <glyph glyph-name="braceright" unicode="}" horiz-adv-x="509" 
d="M35 -301h127c38 0 70.333 15.667 97 47s40 71 40 119v454c0 92.667 30.667 153 92 181c-61.333 27.333 -92 87.333 -92 180v455c0 48 -13.333 87.5 -40 118.5s-59 46.5 -97 46.5h-127v89h127c60 0 113.167 -24 159.5 -72s69.5 -108.667 69.5 -182v-449
c0 -40.667 9.16699 -75 27.5 -103s44.833 -42 79.5 -42v-82c-34 0 -60.333 -14 -79 -42s-28 -62.667 -28 -104v-448c0 -75.333 -23.167 -136.5 -69.5 -183.5s-99.5 -70.5 -159.5 -70.5h-127v88z" />
    <glyph glyph-name="asciitilde" unicode="~" horiz-adv-x="1021" 
d="M57 887c28.667 316.667 119.667 474.999 273 474.999c46.667 0 85.667 -14 117 -42s54.833 -61.833 70.5 -101.5s30.334 -79 44.001 -118s31 -72.5 52 -100.5s47.167 -42 78.5 -42c98 0 160.333 136 187 408l88 -10c-6.66699 -68 -15.5 -128 -26.5 -180
s-26.833 -102.333 -47.5 -151s-47.667 -85.5 -81 -110.5s-73.166 -37.5 -119.499 -37.5s-85.333 13.5 -117 40.5s-55.334 60.333 -71.001 100s-30.334 79.334 -44.001 119.001s-31 73.167 -52 100.5s-47.167 41 -78.5 41c-98 0 -159.667 -135.333 -185 -406z" />
    <glyph glyph-name="uni00A0" unicode="&#xa0;" horiz-adv-x="530" 
 />
    <glyph glyph-name="exclamdown" unicode="&#xa1;" horiz-adv-x="448" 
d="M133 920c0 23.333 8.83301 43.833 26.5 61.5s38.834 26.5 63.501 26.5s45.834 -9 63.501 -27s26.5 -38.333 26.5 -61c0 -24.667 -8.83301 -46 -26.5 -64s-38.834 -27 -63.501 -27s-45.834 9 -63.501 27s-26.5 39.333 -26.5 64zM156 -377l26 1010h84l27 -1010h-137z" />
    <glyph glyph-name="cent" unicode="&#xa2;" horiz-adv-x="1011" 
d="M111 496c0 135.333 37.834 251 113.501 347s176.167 151.667 301.5 167v147h90v-143c130 -5.33301 238 -61.333 324 -168l-74 -66c-62.667 84.667 -146 130.667 -250 138v-846c101.333 4 184.666 50.333 249.999 139l74 -66c-83.333 -108 -191.333 -164.667 -324 -170
v-180h-90v185c-125.333 15.333 -225.833 71 -301.5 167s-113.5 212.333 -113.5 349zM223.001 495.5c0 -107.667 27 -200.166 81 -277.499s128 -124 222 -140v833c-94 -18 -168 -64.833 -222 -140.5s-81 -167.334 -81 -275.001z" />
    <glyph glyph-name="sterling" unicode="&#xa3;" horiz-adv-x="1032" 
d="M37 547l-0.00195312 85.9971h256c-4 5.33301 -18 20.666 -42 45.999s-39.333 42.333 -46 51l-37 50c-18 24.667 -30.333 45.834 -37 63.501s-13.167 39.834 -19.5 66.501s-9.5 54.334 -9.5 83.001c0 108 42.333 200.5 127 277.5s190 115.5 316 115.5
c84.667 0 161.5 -19.667 230.5 -59s120.5 -93.333 154.5 -162l-94 -59c-20.667 48 -57 89.667 -109 125s-110 53 -174 53c-91.333 0 -168.5 -26.333 -231.5 -79s-94.5 -124 -94.5 -214c0 -39.333 7.16699 -77.833 21.5 -115.5s29.333 -66.667 45 -87
s37.834 -47.333 66.501 -81s49.334 -58.5 62.001 -74.5h309v-86h-258c13.333 -36.667 20.333 -73 21 -109c0 -110.667 -55.333 -206 -166 -286c34 12 70.667 18 110 18c46.667 0 101 -15 163 -45s113 -45 153 -45c42 0 82.5 8.83301 121.5 26.5s66.5 36.834 82.5 57.501
l56 -96c-66.667 -64 -154.667 -96.333 -264 -97c-64 0 -127.5 16.167 -190.5 48.5s-121.833 48.5 -176.5 48.5c-57.333 0 -138 -27.333 -242 -82l-45 98c94 40.667 166 90.5 216 149.5s75 121.833 75 188.5c0 39.333 -11 81 -33 125h-317z" />
    <glyph glyph-name="currency" unicode="&#xa4;" horiz-adv-x="1069" 
d="M74 281l113.999 113.999c-68 86 -102 181.667 -102 287c0 108 34 203.667 102 287l-114 116l57 58l117 -115c80.667 68 176.334 102 287.001 102c108 0 203.333 -34 286 -102l115 115l59 -58l-114 -116c68 -83.333 102 -179 102 -287c0 -105.333 -34 -201 -102 -287
l114 -114l-59 -60l-115 117c-82 -69.333 -177.5 -104.166 -286.5 -104.499s-204.5 34.5 -286.5 104.5l-117 -117zM183.999 681.999c0 -96.667 34.167 -179.167 102.5 -247.5s151 -102.5 248 -102.5s179.667 34.167 248 102.5s102.5 150.833 102.5 247.5
s-34.167 179.167 -102.5 247.5s-151 102.5 -248 102.5s-179.667 -34.167 -248 -102.5s-102.5 -150.833 -102.5 -247.5z" />
    <glyph glyph-name="yen" unicode="&#xa5;" horiz-adv-x="1265" 
d="M31 1366h141l461 -672l461 672h141l-483 -696h471v-86h-531v-242h531v-84h-531v-258h-119v258h-528v84h528v242h-528v86h469z" />
    <glyph glyph-name="brokenbar" unicode="&#xa6;" horiz-adv-x="425" 
d="M170 -41v647h88v-647h-88zM170 760v647h88v-647h-88z" />
    <glyph glyph-name="section" unicode="&#xa7;" horiz-adv-x="944" 
d="M80 -8l63.001 74.001c79.333 -98 185.333 -147.333 318 -148c79.333 0 143.5 18.5 192.5 55.5s73.5 86.833 73.5 149.5c0 50.667 -21.5 91 -64.5 121s-94.833 52.167 -155.5 66.5s-121.834 30.333 -183.501 48s-114 46.334 -157 86.001s-64.5 92.167 -64.5 157.5
c0 69.333 23.333 126.333 70 171s107.334 75.667 182.001 93c-82 24.667 -144.5 56.167 -187.5 94.5s-64.5 90.166 -64.5 155.499c0 76.667 31.167 140.834 93.5 192.501s148.833 77.5 259.5 77.5c152.667 0 270 -49 352 -147l-57 -68
c-66.667 87.333 -164.334 131.333 -293.001 132c-72.667 0 -132.167 -17.167 -178.5 -51.5s-69.5 -80.166 -69.5 -137.499c0 -46.667 21.5 -82.834 64.5 -108.501s94.833 -45.334 155.5 -59.001s121.334 -29.5 182.001 -47.5s112.5 -48.833 155.5 -92.5
s64.5 -100.834 64.5 -171.501c0 -117.333 -65.333 -204 -196 -260c131.333 -49.333 196.666 -132 195.999 -248c0 -91.333 -33.667 -163 -101 -215s-157 -78 -269 -78c-154 0 -281 52.667 -381 158zM209.001 608.001c0 -20.667 3.33398 -39.168 10.001 -55.501
s19.667 -31.333 39 -45s35.833 -24.5 49.5 -32.5s37.167 -17.167 70.5 -27.5s57.5 -17.5 72.5 -21.5s43.167 -10.667 84.5 -20c126.667 54.667 190 129 190 223c0 31.333 -7.16699 58.5 -21.5 81.5s-35.5 42.5 -63.5 58.5s-54.333 28.333 -79 37s-55.334 18 -92.001 28
c-95.333 -24.667 -162.5 -55.167 -201.5 -91.5s-58.5 -81.166 -58.5 -134.499z" />
    <glyph glyph-name="dieresis" unicode="&#xa8;" horiz-adv-x="536" 
d="M-16 1231c0 20.667 7.5 38.5 22.5 53.5s32.667 22.5 53 22.5s38 -7.5 53 -22.5s22.5 -32.833 22.5 -53.5s-7.5 -38.5 -22.5 -53.5s-32.667 -22.5 -53 -22.5s-38 7.5 -53 22.5s-22.5 32.833 -22.5 53.5zM401 1231c0 20.667 7.5 38.5 22.5 53.5s32.833 22.5 53.5 22.5
s38.5 -7.5 53.5 -22.5s22.5 -32.833 22.5 -53.5s-7.5 -38.5 -22.5 -53.5s-32.833 -22.5 -53.5 -22.5s-38.5 7.5 -53.5 22.5s-22.5 32.833 -22.5 53.5z" />
    <glyph glyph-name="copyright" unicode="&#xa9;" horiz-adv-x="1593" 
d="M90 684c0 195.333 69 362 207 500s304.667 207 500 207s361.833 -69 499.5 -207s206.5 -304.667 206.5 -500s-68.833 -362 -206.5 -500s-304.167 -207 -499.5 -207s-362 69.333 -500 208s-207 305 -207 499zM147 684c0 -177.333 63.5 -329.833 190.5 -457.5
s280 -191.5 459 -191.5s332 63.5 459 190.5s190.5 279.833 190.5 458.5s-63.5 331.5 -190.5 458.5s-280 190.5 -459 190.5s-332 -63.5 -459 -190.5s-190.5 -279.833 -190.5 -458.5zM373 688c0 124 41.335 227.668 124.002 311.001s183.334 125 302.001 125
c122.667 0 221.667 -44.333 297 -133l-45 -45c-26 35.333 -62.333 63.666 -109 84.999s-94.334 32 -143.001 32c-96.667 0 -180.667 -35.167 -252 -105.5s-107 -160.833 -107 -271.5c0 -108 35.5 -198.167 106.5 -270.5s155.167 -108.5 252.5 -108.5
c49.333 0 97.166 11 143.499 33s82.5 50.667 108.5 86l45 -45c-78 -90 -177 -135 -297 -135c-118.667 0 -219.334 42.667 -302.001 128s-124 190 -124 314z" />
    <glyph glyph-name="ordfeminine" unicode="&#xaa;" horiz-adv-x="768" 
d="M94 866.5c0 65.667 22.832 117.167 68.499 154.5s99.5 56 161.5 56c92.667 0 167.667 -30 225 -90v125c0 45.333 -17.167 80.5 -51.5 105.5s-75.166 37.5 -122.499 37.5c-84.667 0 -153 -32.667 -205 -98l-45 57c69.333 75.333 156 113 260 113
c74 0 134.167 -17.667 180.5 -53s69.5 -89.333 69.5 -162v-444h-86v75c-57.333 -61.333 -132.333 -92 -225 -92c-61.333 0 -115 19.5 -161 58.5s-69 91.333 -69 157zM181.999 866c0 -45.333 16.502 -82.167 49.502 -110.5s74.5 -42.5 124.5 -42.5
c83.333 0 147.666 28.667 192.999 86v133c-44 56 -108.333 84 -193 84c-50.667 0 -92.334 -14 -125.001 -42s-49 -64 -49 -108z" />
    <glyph glyph-name="guillemotleft" unicode="&#xab;" horiz-adv-x="823" 
d="M61 498l328 362h117l-328 -362l328 -369h-117zM317 498l328 362h117l-328 -362l328 -369h-117z" />
    <glyph glyph-name="logicalnot" unicode="&#xac;" horiz-adv-x="1021" 
d="M59 842v86h897v-486h-88v400h-809z" />
    <glyph glyph-name="uni00AD" unicode="&#xad;" horiz-adv-x="614" 
d="M61 446v99h492v-99h-492z" />
    <glyph glyph-name="registered" unicode="&#xae;" horiz-adv-x="1011" 
d="M72 952.5c0 120.333 42.333 222.667 127 307s187 126.5 307 126.5c121.333 0 224 -41.833 308 -125.5s126 -186.5 126 -308.5c0 -120 -42.333 -222.333 -127 -307s-187 -127 -307 -127s-222.333 42.333 -307 127s-127 187.167 -127 307.5zM127 952.001
c0 -104 37.167 -193.167 111.5 -267.5s163.5 -111.5 267.5 -111.5s193.167 37.333 267.5 112s111.5 163.667 111.5 267c0 105.333 -36.833 194.833 -110.5 268.5s-163.167 110.5 -268.5 110.5s-194.833 -36.833 -268.5 -110.5s-110.5 -163.167 -110.5 -268.5zM342 702.001
v498h203c44 0 80.5 -14 109.5 -42s43.5 -64.333 43.5 -109c0 -48 -15.333 -84.667 -46 -110s-57.667 -38 -81 -38l134 -199h-78l-129 197h-95v-197h-61zM403 958.001h141.999c22 0 42.5 9 61.5 27s28.5 39.333 28.5 64c0 26 -9.16699 48.167 -27.5 66.5
s-39.166 27.5 -62.499 27.5h-142v-185z" />
    <glyph glyph-name="uni203E" unicode="&#xaf;" horiz-adv-x="743" 
d="M0 1210v78h743v-78h-743z" />
    <glyph glyph-name="uni203E" unicode="&#x203e;" horiz-adv-x="743" 
d="M0 1210v78h743v-78h-743z" />
    <glyph glyph-name="degree" unicode="&#xb0;" horiz-adv-x="577" 
d="M51 1147c0 65.333 22.833 121.5 68.5 168.5s101.5 70.5 167.5 70.5c66.667 0 123.167 -23.5 169.5 -70.5s69.5 -103.167 69.5 -168.5s-23.167 -121 -69.5 -167s-102.833 -69 -169.5 -69c-65.333 0 -121 23 -167 69s-69 101.667 -69 167zM131 1146.5
c0 -43.667 14.999 -80.5 44.999 -110.5s66.833 -45 110.5 -45s81.167 15.333 112.5 46s47 67.334 47 110.001c0 44 -15.667 81.667 -47 113s-68.666 47 -111.999 47c-42 0 -78.5 -15.833 -109.5 -47.5s-46.5 -69.334 -46.5 -113.001z" />
    <glyph glyph-name="plusminus" unicode="&#xb1;" horiz-adv-x="1015" 
d="M59 0v84h897v-84h-897zM59 662v83h404v435h92v-435h401v-83h-401v-447h-92v447h-404z" />
    <glyph glyph-name="uni00B2" unicode="&#xb2;" horiz-adv-x="786" 
d="M106 862l0.000976562 71.9971c166.667 118.667 288.667 217.334 366 296.001s116 153.334 116 224.001c0 54.667 -18.5 95.334 -55.5 122.001s-82.167 40 -135.5 40c-105.333 0 -182.333 -35.667 -231 -107l-55 58c65.333 84.667 161.333 127 288 127
c75.333 0 140.666 -19.833 195.999 -59.5s83 -98.5 83 -176.5c0 -82 -37.167 -163.167 -111.5 -243.5s-182.5 -171.833 -324.5 -274.5h440v-78h-576z" />
    <glyph glyph-name="uni00B3" unicode="&#xb3;" horiz-adv-x="786" 
d="M94 981l52.999 56.9971c57.333 -75.333 137.333 -112.666 240 -111.999c62.667 0 112.5 14.333 149.5 43s55.5 67.334 55.5 116.001c0 54.667 -20.833 95.334 -62.5 122.001s-95.834 40 -162.501 40c-44 0 -70 -0.666992 -78 -2v78c9.33301 -1.33301 35.333 -2 78 -2
c62.667 0 113.834 12 153.501 36s59.5 61.667 59.5 113c0 45.333 -18.833 81 -56.5 107s-84.5 39 -140.5 39c-88.667 0 -164.334 -34.333 -227.001 -103l-52 56c70.667 83.333 165.667 125 285 125c82 0 149.667 -19.5 203 -58.5s80 -91.833 80 -158.5
c0 -56 -19.167 -100.167 -57.5 -132.5s-80.166 -51.833 -125.499 -58.5c46.667 -4 91.167 -23.333 133.5 -58s63.5 -83 63.5 -145c0 -69.333 -26.667 -125.833 -80 -169.5s-125.666 -65.5 -216.999 -65.5c-66.667 0 -126 12.333 -178 37s-91 56.667 -117 96z" />
    <glyph glyph-name="acute" unicode="&#xb4;" horiz-adv-x="442" 
d="M0 1139l315 295h127l-352 -295h-90z" />
    <glyph glyph-name="mu" unicode="&#xb5;" horiz-adv-x="1105" 
d="M166 -377l0.00195312 1366h106v-672c0 -91.333 20.5 -155.666 61.5 -192.999s100.5 -56 178.5 -56c61.333 0 121.666 16.333 180.999 49s106.333 72.334 141 119.001v753h106v-989h-106v145c-44 -49.333 -97.333 -90 -160 -122s-128.334 -48 -197.001 -48
c-86 0 -154.333 17.333 -205 52v-404h-106z" />
    <glyph glyph-name="mu" unicode="&#x3bc;" horiz-adv-x="1105" 
d="M166 -377l0.00195312 1366h106v-672c0 -91.333 20.5 -155.666 61.5 -192.999s100.5 -56 178.5 -56c61.333 0 121.666 16.333 180.999 49s106.333 72.334 141 119.001v753h106v-989h-106v145c-44 -49.333 -97.333 -90 -160 -122s-128.334 -48 -197.001 -48
c-86 0 -154.333 17.333 -205 52v-404h-106z" />
    <glyph glyph-name="paragraph" unicode="&#xb6;" horiz-adv-x="919" 
d="M55 1013.5c0 97 34.5 180 103.5 249s152.167 103.5 249.5 103.5h346v-1571h-78v1493h-191v-1493h-77v867c-96.667 0 -179.667 34.333 -249 103s-104 151.5 -104 248.5z" />
    <glyph glyph-name="uni2219" unicode="&#xb7;" horiz-adv-x="448" 
d="M135 502c0 23.333 8.83301 43.833 26.5 61.5s38.834 26.5 63.501 26.5s45.834 -8.83301 63.501 -26.5s26.5 -38.167 26.5 -61.5c0 -24.667 -8.83301 -45.834 -26.5 -63.501s-38.834 -26.5 -63.501 -26.5s-45.834 8.83301 -63.501 26.5s-26.5 38.834 -26.5 63.501z" />
    <glyph glyph-name="uni2219" unicode="&#x2219;" horiz-adv-x="448" 
d="M135 502c0 23.333 8.83301 43.833 26.5 61.5s38.834 26.5 63.501 26.5s45.834 -8.83301 63.501 -26.5s26.5 -38.167 26.5 -61.5c0 -24.667 -8.83301 -45.834 -26.5 -63.501s-38.834 -26.5 -63.501 -26.5s-45.834 8.83301 -63.501 26.5s-26.5 38.834 -26.5 63.501z" />
    <glyph glyph-name="cedilla" unicode="&#xb8;" horiz-adv-x="405" 
d="M0 -328l35.001 66.001c46.667 -38 100.667 -57 162 -57c36.667 0 68 8.5 94 25.5s39 39.167 39 66.5c0 54.667 -27.333 82 -82 82c-34 0 -62 -12.333 -84 -37l-55 32l61 173h78l-53 -138c22 15.333 47 23 75 23c39.333 0 71.833 -12.333 97.5 -37
s38.5 -57.334 38.5 -98.001c0 -48 -19.833 -86.667 -59.5 -116s-88.834 -44 -147.501 -44c-86 0 -152.333 19.667 -199 59z" />
    <glyph glyph-name="uni00B9" unicode="&#xb9;" horiz-adv-x="438" 
d="M35 1479l198 202h82v-819h-94v699l-131 -142z" />
    <glyph glyph-name="ordmasculine" unicode="&#xba;" horiz-adv-x="829" 
d="M90 989.5c0 95.667 29.999 175.833 89.999 240.5s138 97 234 97c96.667 0 175 -32 235 -96s90 -144.667 90 -242c0 -95.333 -30 -175.5 -90 -240.5s-138.333 -97.5 -235 -97.5c-95.333 0 -173.166 32.5 -233.499 97.5s-90.5 145.333 -90.5 241zM181.999 989.499
c0 -75 20.833 -137.5 62.5 -187.5s98.167 -75 169.5 -75c72.667 0 130 25 172 75s63 112.333 63 187c0 74 -21.167 135.833 -63.5 185.5s-99.5 74.5 -171.5 74.5c-70.667 0 -127 -24.5 -169 -73.5s-63 -111 -63 -186z" />
    <glyph glyph-name="guillemotright" unicode="&#xbb;" horiz-adv-x="823" 
d="M61 129l328 369l-328 362h117l328 -362l-328 -369h-117zM317 129l328 369l-328 362h117l328 -362l-328 -369h-117z" />
    <glyph glyph-name="onequarter" unicode="&#xbc;" horiz-adv-x="1519" 
d="M35 1163l198 203h82v-819h-94v698l-131 -141zM197 0l872 1366h94l-874 -1366h-92zM821 219v72l367 528h125v-524h123v-76h-123v-219h-90v219h-402zM915 295h308v440z" />
    <glyph glyph-name="onehalf" unicode="&#xbd;" horiz-adv-x="1599" 
d="M35 1163l198 203h82v-819h-94v698l-131 -141zM197 0l872 1366h94l-874 -1366h-92zM920 0l0.000976562 72c166.667 118.667 288.5 217.167 365.5 295.5s115.5 153.166 115.5 224.499c0 54.667 -18.5 95.334 -55.5 122.001s-82.167 40 -135.5 40
c-105.333 0 -182.333 -35.667 -231 -107l-55 58c65.333 84.667 161.333 126.667 288 126c75.333 0 140.666 -19.667 195.999 -59s83 -98 83 -176c0 -82 -37.167 -163.333 -111.5 -244s-182.5 -172 -324.5 -274h440v-78h-575z" />
    <glyph glyph-name="threequarters" unicode="&#xbe;" horiz-adv-x="1759" 
d="M94 666l52.999 56.999c57.333 -75.333 137.333 -113 240 -113c62.667 0 112.5 14.333 149.5 43s55.5 67.667 55.5 117c0 54.667 -20.833 95.334 -62.5 122.001s-95.834 40 -162.501 40c-44 0 -70 -0.666992 -78 -2v78c9.33301 -1.33301 35.333 -2 78 -2
c62.667 0 113.834 11.833 153.501 35.5s59.5 61.5 59.5 113.5c0 45.333 -18.833 80.833 -56.5 106.5s-84.5 38.5 -140.5 38.5c-88.667 0 -164.334 -34 -227.001 -102l-52 55c70.667 83.333 165.667 125 285 125c82 0 149.667 -19.333 203 -58s80 -91.667 80 -159
c0 -56 -19.167 -100 -57.5 -132s-80.166 -51.333 -125.499 -58c46.667 -4 91.167 -23.5 133.5 -58.5s63.5 -83.167 63.5 -144.5c0 -69.333 -26.667 -126 -80 -170s-125.666 -66 -216.999 -66c-66.667 0 -126 12.5 -178 37.5s-91 57.167 -117 96.5zM435.999 -0.000976562
l873 1366h94l-875 -1366h-92zM1061 218.999v72l366 528h125v-524h123v-76h-123v-219h-90v219h-401zM1155 294.999h307v440z" />
    <glyph glyph-name="questiondown" unicode="&#xbf;" horiz-adv-x="802" 
d="M74 -86c0 57.333 14.333 109.167 43 155.5s63.5 84.5 104.5 114.5s82 58.333 123 85s75.833 56.834 104.5 90.501s43 70.167 43 109.5s-20.667 73.333 -62 102l82 52c57.333 -46.667 86 -100.667 86 -162c0 -49.333 -13.667 -93.833 -41 -133.5
s-60.833 -73.167 -100.5 -100.5l-118.5 -81c-39.333 -26.667 -72.666 -58.667 -99.999 -96s-41 -79.333 -41 -126c0 -62.667 24.5 -114.834 73.5 -156.501s116.5 -62.5 202.5 -62.5c151.333 0 270.666 60.667 357.999 182l74 -75c-105.333 -143.333 -252 -215 -440 -215
c-118.667 0 -213.5 30.667 -284.5 92s-106.5 136.333 -106.5 225zM403 918.001c0 24.667 9.33301 45.833 28 63.5s40.167 26.5 64.5 26.5s45.5 -9 63.5 -27s27 -39 27 -63c0 -23.333 -9 -44 -27 -62s-39.167 -27 -63.5 -27s-45.833 9 -64.5 27s-28 38.667 -28 62z" />
    <glyph glyph-name="Agrave" unicode="&#xc0;" horiz-adv-x="1325" 
d="M31 0l559 1366h145l559 -1366h-135l-135 336h-723l-135 -336h-135zM340 442h645l-321 799zM344 1786h127l315 -295h-90z" />
    <glyph glyph-name="Aacute" unicode="&#xc1;" horiz-adv-x="1325" 
d="M31 0l559 1366h145l559 -1366h-135l-135 336h-723l-135 -336h-135zM340 442h645l-321 799zM543 1491l315 295h127l-352 -295h-90z" />
    <glyph glyph-name="Acircumflex" unicode="&#xc2;" horiz-adv-x="1325" 
d="M31 0l559 1366h145l559 -1366h-135l-135 336h-723l-135 -336h-135zM340 442h645l-321 799zM410 1491l198 295h111l203 -295h-82l-176 231l-172 -231h-82z" />
    <glyph glyph-name="Atilde" unicode="&#xc3;" horiz-adv-x="1325" 
d="M31 0l559 1366h145l559 -1366h-135l-135 336h-723l-135 -336h-135zM340 442h645l-321 799zM350 1499c0 79.333 16.834 145 50.501 197s80.5 78 140.5 78c34 0 63.667 -11 89 -33s43.666 -46 54.999 -72s27 -49.833 47 -71.5s41.667 -32.5 65 -32.5
c32.667 0 59.167 16.333 79.5 49s30.5 81.667 30.5 147h72c0 -80.667 -16.667 -146.5 -50 -197.5s-80.333 -76.5 -141 -76.5c-34 0 -63.5 10.833 -88.5 32.5s-43.333 45.5 -55 71.5s-27.5 50 -47.5 72s-41.667 33 -65 33c-32.667 0 -59.167 -16.5 -79.5 -49.5
s-30.5 -82.167 -30.5 -147.5h-72z" />
    <glyph glyph-name="Adieresis" unicode="&#xc4;" horiz-adv-x="1325" 
d="M31 0l559 1366h145l559 -1366h-135l-135 336h-723l-135 -336h-135zM340 442h645l-321 799zM379 1575c0 20.667 7.5 38.5 22.5 53.5s32.667 22.5 53 22.5s38 -7.5 53 -22.5s22.5 -32.833 22.5 -53.5s-7.5 -38.5 -22.5 -53.5s-32.667 -22.5 -53 -22.5s-38 7.5 -53 22.5
s-22.5 32.833 -22.5 53.5zM797 1575c0 20.667 7.5 38.5 22.5 53.5s32.667 22.5 53 22.5s38 -7.5 53 -22.5s22.5 -32.833 22.5 -53.5s-7.5 -38.5 -22.5 -53.5s-32.667 -22.5 -53 -22.5s-38 7.5 -53 22.5s-22.5 32.833 -22.5 53.5z" />
    <glyph glyph-name="Aring" unicode="&#xc5;" horiz-adv-x="1325" 
d="M31 0l559 1366h145l559 -1366h-135l-135 336h-723l-135 -336h-135zM340 442h645l-321 799zM469 1614c0 54.667 19.167 101 57.5 139s84.833 57 139.5 57c53.333 0 99 -19 137 -57s57 -84.333 57 -139c0 -53.333 -19.167 -99.5 -57.5 -138.5s-83.833 -58.5 -136.5 -58.5
c-54.667 0 -101.167 19.5 -139.5 58.5s-57.5 85.167 -57.5 138.5zM535 1614c0 -35.333 12.833 -66 38.5 -92s56.334 -39 92.001 -39s66.167 13 91.5 39s38 56.667 38 92s-12.667 66 -38 92s-55.833 39 -91.5 39s-66.334 -13 -92.001 -39s-38.5 -56.667 -38.5 -92z" />
    <glyph glyph-name="AE" unicode="&#xc6;" horiz-adv-x="1923" 
d="M29 0l862 1366h909v-106h-747v-506h733v-107h-733v-541h747v-106h-866v336h-561l-209 -336h-135zM432 442h502v799z" />
    <glyph glyph-name="Ccedilla" unicode="&#xc7;" horiz-adv-x="1374" 
d="M119 682c0 207.333 66.1699 377.003 198.503 509.003s296.833 198 493.5 198c204.667 0 370.667 -80.667 498 -242l-99 -64c-44 60 -101.333 108.167 -172 144.5s-146.334 54.5 -227.001 54.5c-162.667 0 -298.167 -56 -406.5 -168s-162.5 -256 -162.5 -432
c0 -174.667 54.5 -318.334 163.5 -431.001s244.167 -169 405.5 -169c80.667 0 156.5 18 227.5 54s128.167 84.333 171.5 145l101 -62c-130 -158.667 -292 -240 -486 -244l-30 -81c22 15.333 47 22.666 75 21.999c39.333 0 71.833 -12.333 97.5 -37
s38.5 -57.334 38.5 -98.001c0 -48 -19.833 -86.667 -59.5 -116s-88.834 -44 -147.501 -44c-86 0 -152.333 20 -199 60l35 65c46.667 -38 100.667 -57 162 -57c36.667 0 68 8.5 94 25.5s39 39.167 39 66.5c0 54.667 -27.333 82 -82 82c-34 0 -62 -12.333 -84 -37l-55 33
l43 118c-182.667 13.333 -333.834 85 -453.501 215s-179.5 293.333 -179.5 490z" />
    <glyph glyph-name="Egrave" unicode="&#xc8;" horiz-adv-x="1155" 
d="M170 0v1366h866v-106h-749v-506h735v-107h-735v-541h749v-106h-866zM283 1786h127l315 -295h-90z" />
    <glyph glyph-name="Eacute" unicode="&#xc9;" horiz-adv-x="1155" 
d="M170 0v1366h866v-106h-749v-506h735v-107h-735v-541h749v-106h-866zM481 1491l316 295h127l-353 -295h-90z" />
    <glyph glyph-name="Ecircumflex" unicode="&#xca;" horiz-adv-x="1155" 
d="M170 0v1366h866v-106h-749v-506h735v-107h-735v-541h749v-106h-866zM344 1491l199 295h110l203 -295h-82l-176 231l-172 -231h-82z" />
    <glyph glyph-name="Edieresis" unicode="&#xcb;" horiz-adv-x="1155" 
d="M170 0v1366h866v-106h-749v-506h735v-107h-735v-541h749v-106h-866zM315 1575c0 20.667 7.5 38.5 22.5 53.5s32.833 22.5 53.5 22.5s38.5 -7.5 53.5 -22.5s22.5 -32.833 22.5 -53.5s-7.5 -38.5 -22.5 -53.5s-32.833 -22.5 -53.5 -22.5s-38.5 7.5 -53.5 22.5
s-22.5 32.833 -22.5 53.5zM733 1575c0 20.667 7.5 38.5 22.5 53.5s32.833 22.5 53.5 22.5s38.5 -7.5 53.5 -22.5s22.5 -32.833 22.5 -53.5s-7.5 -38.5 -22.5 -53.5s-32.833 -22.5 -53.5 -22.5s-38.5 7.5 -53.5 22.5s-22.5 32.833 -22.5 53.5z" />
    <glyph glyph-name="Igrave" unicode="&#xcc;" horiz-adv-x="456" 
d="M-90 1786h127l315 -295h-90zM170 0v1366h117v-1366h-117z" />
    <glyph glyph-name="Iacute" unicode="&#xcd;" horiz-adv-x="456" 
d="M109 1491l315 295h127l-352 -295h-90zM170 0v1366h117v-1366h-117z" />
    <glyph glyph-name="Icircumflex" unicode="&#xce;" horiz-adv-x="456" 
d="M-25 1491l199 295h111l202 -295h-81l-177 231l-172 -231h-82zM170 0v1366h117v-1366h-117z" />
    <glyph glyph-name="Idieresis" unicode="&#xcf;" horiz-adv-x="456" 
d="M-55 1575c0 20.667 7.5 38.5 22.5 53.5s32.667 22.5 53 22.5s38 -7.5 53 -22.5s22.5 -32.833 22.5 -53.5s-7.5 -38.5 -22.5 -53.5s-32.667 -22.5 -53 -22.5s-38 7.5 -53 22.5s-22.5 32.833 -22.5 53.5zM170 0v1366h117v-1366h-117zM362 1575
c0 20.667 7.66699 38.5 23 53.5s33.166 22.5 53.499 22.5s38 -7.5 53 -22.5s22.5 -32.833 22.5 -53.5s-7.5 -38.5 -22.5 -53.5s-32.667 -22.5 -53 -22.5s-38.166 7.5 -53.499 22.5s-23 32.833 -23 53.5z" />
    <glyph glyph-name="Eth" unicode="&#xd0;" horiz-adv-x="1476" 
d="M23 631l-0.000976562 94.001h206v641h437c206 0 372.5 -65.833 499.5 -197.5s190.5 -293.834 190.5 -486.501c0 -194 -63.167 -356.167 -189.5 -486.5s-293.166 -195.5 -500.499 -195.5h-437v631h-206zM345.999 106.001l319.999 0.000976562
c174.667 0 312.834 54.667 414.501 164s152.5 246.666 152.5 411.999s-50.5 303 -151.5 413s-239.5 165 -415.5 165h-320v-535h369v-94h-369v-525z" />
    <glyph glyph-name="Ntilde" unicode="&#xd1;" horiz-adv-x="1431" 
d="M170 0v1366h119l856 -1157v1157h117v-1366h-115l-860 1174v-1174h-117zM397 1499c0 79.333 16.833 145 50.5 197s80.5 78 140.5 78c34 0 63.667 -11 89 -33s43.833 -46 55.5 -72s27.334 -49.833 47.001 -71.5s41.167 -32.5 64.5 -32.5c32.667 0 59.167 16.333 79.5 49
s30.5 81.667 30.5 147h72c0 -80.667 -16.667 -146.5 -50 -197.5s-80 -76.5 -140 -76.5c-34 0 -63.667 10.833 -89 32.5s-43.833 45.5 -55.5 71.5s-27.5 50 -47.5 72s-41.333 33 -64 33c-32.667 0 -59.334 -16.5 -80.001 -49.5s-31 -82.167 -31 -147.5h-72z" />
    <glyph glyph-name="Ograve" unicode="&#xd2;" horiz-adv-x="1564" 
d="M119 682c0 203.333 61 372 183 506s282 201 480 201c196.667 0 356.5 -67 479.5 -201s184.5 -302.667 184.5 -506s-61.5 -372 -184.5 -506s-282.833 -201 -479.5 -201c-198 0 -358 67 -480 201s-183 302.667 -183 506zM242 682c0 -174.667 49.5 -318.334 148.5 -431.001
s229.5 -169 391.5 -169c161.333 0 291.833 56.333 391.5 169s149.5 256.334 149.5 431.001s-49.5 318.334 -148.5 431.001s-229.667 169 -392 169s-293 -56.333 -392 -169s-148.5 -256.334 -148.5 -431.001zM471 1786h127l315 -295h-90z" />
    <glyph glyph-name="Oacute" unicode="&#xd3;" horiz-adv-x="1564" 
d="M119 682c0 203.333 61 372 183 506s282 201 480 201c196.667 0 356.5 -67 479.5 -201s184.5 -302.667 184.5 -506s-61.5 -372 -184.5 -506s-282.833 -201 -479.5 -201c-198 0 -358 67 -480 201s-183 302.667 -183 506zM242 682c0 -174.667 49.5 -318.334 148.5 -431.001
s229.5 -169 391.5 -169c161.333 0 291.833 56.333 391.5 169s149.5 256.334 149.5 431.001s-49.5 318.334 -148.5 431.001s-229.667 169 -392 169s-293 -56.333 -392 -169s-148.5 -256.334 -148.5 -431.001zM664 1491l315 295h127l-352 -295h-90z" />
    <glyph glyph-name="Ocircumflex" unicode="&#xd4;" horiz-adv-x="1564" 
d="M119 682c0 203.333 61 372 183 506s282 201 480 201c196.667 0 356.5 -67 479.5 -201s184.5 -302.667 184.5 -506s-61.5 -372 -184.5 -506s-282.833 -201 -479.5 -201c-198 0 -358 67 -480 201s-183 302.667 -183 506zM242 682c0 -174.667 49.5 -318.334 148.5 -431.001
s229.5 -169 391.5 -169c161.333 0 291.833 56.333 391.5 169s149.5 256.334 149.5 431.001s-49.5 318.334 -148.5 431.001s-229.667 169 -392 169s-293 -56.333 -392 -169s-148.5 -256.334 -148.5 -431.001zM530 1491l199 295h111l202 -295h-81l-177 231l-172 -231h-82z" />
    <glyph glyph-name="Otilde" unicode="&#xd5;" horiz-adv-x="1564" 
d="M119 682c0 203.333 61 372 183 506s282 201 480 201c196.667 0 356.5 -67 479.5 -201s184.5 -302.667 184.5 -506s-61.5 -372 -184.5 -506s-282.833 -201 -479.5 -201c-198 0 -358 67 -480 201s-183 302.667 -183 506zM242 682c0 -174.667 49.5 -318.334 148.5 -431.001
s229.5 -169 391.5 -169c161.333 0 291.833 56.333 391.5 169s149.5 256.334 149.5 431.001s-49.5 318.334 -148.5 431.001s-229.667 169 -392 169s-293 -56.333 -392 -169s-148.5 -256.334 -148.5 -431.001zM469 1499c0 79.333 16.667 145 50 197s80 78 140 78
c34 0 63.667 -11 89 -33s43.833 -46 55.5 -72s27.5 -49.833 47.5 -71.5s41.333 -32.5 64 -32.5c32.667 0 59.334 16.333 80.001 49s31 81.667 31 147h72c0 -80.667 -16.833 -146.5 -50.5 -197.5s-80.5 -76.5 -140.5 -76.5c-34 0 -63.667 10.833 -89 32.5
s-43.833 45.5 -55.5 71.5s-27.334 50 -47.001 72s-41.167 33 -64.5 33c-32.667 0 -59.167 -16.5 -79.5 -49.5s-30.5 -82.167 -30.5 -147.5h-72z" />
    <glyph glyph-name="Odieresis" unicode="&#xd6;" horiz-adv-x="1564" 
d="M119 682c0 203.333 61 372 183 506s282 201 480 201c196.667 0 356.5 -67 479.5 -201s184.5 -302.667 184.5 -506s-61.5 -372 -184.5 -506s-282.833 -201 -479.5 -201c-198 0 -358 67 -480 201s-183 302.667 -183 506zM242 682c0 -174.667 49.5 -318.334 148.5 -431.001
s229.5 -169 391.5 -169c161.333 0 291.833 56.333 391.5 169s149.5 256.334 149.5 431.001s-49.5 318.334 -148.5 431.001s-229.667 169 -392 169s-293 -56.333 -392 -169s-148.5 -256.334 -148.5 -431.001zM496 1575c0 20.667 7.5 38.5 22.5 53.5s32.667 22.5 53 22.5
s38 -7.5 53 -22.5s22.5 -32.833 22.5 -53.5s-7.5 -38.5 -22.5 -53.5s-32.667 -22.5 -53 -22.5s-38 7.5 -53 22.5s-22.5 32.833 -22.5 53.5zM913 1575c0 20.667 7.5 38.5 22.5 53.5s32.833 22.5 53.5 22.5s38.5 -7.5 53.5 -22.5s22.5 -32.833 22.5 -53.5
s-7.5 -38.5 -22.5 -53.5s-32.833 -22.5 -53.5 -22.5s-38.5 7.5 -53.5 22.5s-22.5 32.833 -22.5 53.5z" />
    <glyph glyph-name="multiply" unicode="&#xd7;" horiz-adv-x="1015" 
d="M137 373l312 311l-312 311l62 60l309 -312l311 312l60 -60l-312 -311l312 -311l-60 -60l-311 312l-309 -312z" />
    <glyph glyph-name="Oslash" unicode="&#xd8;" horiz-adv-x="1564" 
d="M119 682c0 203.333 61.001 372.001 183.001 506.001s282 201 480 201c121.333 0 233.333 -29.667 336 -89l41 66h107l-74 -115c80.667 -64 143.167 -145.5 187.5 -244.5s66.5 -207.167 66.5 -324.5c0 -203.333 -61.5 -372 -184.5 -506s-282.833 -201 -479.5 -201
c-126.667 0 -241.334 30.333 -344.001 91l-41 -66h-104l74 115c-79.333 64 -140.5 145.167 -183.5 243.5s-64.5 206.166 -64.5 323.499zM242.001 682.001c0 -200.667 62.001 -356.999 186.001 -468.999l631 995c-80.667 49.333 -173 74 -277 74
c-162.667 0 -293.334 -56.333 -392.001 -169s-148 -256.334 -148 -431.001zM498.002 160.002c84.667 -52 179.333 -78.002 284 -78.002c161.333 0 291.833 56.333 391.5 169s149.5 256.334 149.5 431.001c0 204.667 -64.333 362.334 -193 473.001z" />
    <glyph glyph-name="Ugrave" unicode="&#xd9;" horiz-adv-x="1404" 
d="M170 524v841.999h119v-840c0 -139.333 35.833 -248.166 107.5 -326.499s173.667 -117.5 306 -117.5s234.333 39.167 306 117.5s107.5 187.166 107.5 326.499v840h119v-842c0 -172 -45.333 -306.5 -136 -403.5s-223 -145.5 -397 -145.5c-172 0 -303.667 48.833 -395 146.5
s-137 231.834 -137 402.501zM387 1786h127l315 -295h-90z" />
    <glyph glyph-name="Uacute" unicode="&#xda;" horiz-adv-x="1404" 
d="M170 524v841.999h119v-840c0 -139.333 35.833 -248.166 107.5 -326.499s173.667 -117.5 306 -117.5s234.333 39.167 306 117.5s107.5 187.166 107.5 326.499v840h119v-842c0 -172 -45.333 -306.5 -136 -403.5s-223 -145.5 -397 -145.5c-172 0 -303.667 48.833 -395 146.5
s-137 231.834 -137 402.501zM580 1491l315 295h127l-352 -295h-90z" />
    <glyph glyph-name="Ucircumflex" unicode="&#xdb;" horiz-adv-x="1404" 
d="M170 524v841.999h119v-840c0 -139.333 35.833 -248.166 107.5 -326.499s173.667 -117.5 306 -117.5s234.333 39.167 306 117.5s107.5 187.166 107.5 326.499v840h119v-842c0 -172 -45.333 -306.5 -136 -403.5s-223 -145.5 -397 -145.5c-172 0 -303.667 48.833 -395 146.5
s-137 231.834 -137 402.501zM455 1491l198 295h111l203 -295h-82l-176 231l-172 -231h-82z" />
    <glyph glyph-name="Udieresis" unicode="&#xdc;" horiz-adv-x="1404" 
d="M170 524v841.999h119v-840c0 -139.333 35.833 -248.166 107.5 -326.499s173.667 -117.5 306 -117.5s234.333 39.167 306 117.5s107.5 187.166 107.5 326.499v840h119v-842c0 -172 -45.333 -306.5 -136 -403.5s-223 -145.5 -397 -145.5c-172 0 -303.667 48.833 -395 146.5
s-137 231.834 -137 402.501zM420 1575c0 20.667 7.5 38.5 22.5 53.5s32.667 22.5 53 22.5s38 -7.5 53 -22.5s22.5 -32.833 22.5 -53.5s-7.5 -38.5 -22.5 -53.5s-32.667 -22.5 -53 -22.5s-38 7.5 -53 22.5s-22.5 32.833 -22.5 53.5zM838 1575c0 20.667 7.5 38.5 22.5 53.5
s32.667 22.5 53 22.5s38 -7.5 53 -22.5s22.5 -32.833 22.5 -53.5s-7.5 -38.5 -22.5 -53.5s-32.667 -22.5 -53 -22.5s-38 7.5 -53 22.5s-22.5 32.833 -22.5 53.5z" />
    <glyph glyph-name="Yacute" unicode="&#xdd;" horiz-adv-x="1265" 
d="M31 1366h141l461 -672l461 672h141l-543 -782v-584h-119v584zM520 1491l316 295h127l-353 -295h-90z" />
    <glyph glyph-name="Thorn" unicode="&#xde;" 
d="M170 0v1366h117v-254h395c126.667 0 227 -38.833 301 -116.5s111 -172.5 111 -284.5s-37.333 -206.333 -112 -283s-174.667 -115 -300 -115h-395v-313h-117zM287 420h383c90 0 162.667 27 218 81s83 124 83 210c0 87.333 -27.667 158.333 -83 213s-128 82 -218 82h-383
v-586z" />
    <glyph glyph-name="germandbls" unicode="&#xdf;" horiz-adv-x="1183" 
d="M166 0l0.00195312 1042c0 98 32.667 179.833 98 245.5s151.333 98.5 258 98.5c90 0 167.5 -22.167 232.5 -66.5s97.5 -102.5 97.5 -174.5c0 -40.667 -11.333 -76.834 -34 -108.501s-49.667 -57.667 -81 -78l-94 -59.5c-31.333 -19.333 -58.333 -42.166 -81 -68.499
s-34 -56.833 -34 -91.5c0 -45.333 21.167 -80.5 63.5 -105.5s93.666 -44.333 153.999 -58s120.166 -29 179.499 -46s110.166 -47.333 152.499 -91s63.5 -100.5 63.5 -170.5c0 -82 -31.167 -151.333 -93.5 -208s-153.5 -85 -273.5 -85c-90 0 -162.667 13.667 -218 41
s-107 66.333 -155 117l64 78c74 -96.667 177 -145 309 -145c83.333 0 147.833 19.667 193.5 59s68.5 86.333 68.5 141c0 49.333 -21.167 88.666 -63.5 117.999s-93.5 51.5 -153.5 66.5s-119.667 31 -179 48s-110.166 45.333 -152.499 85s-63.5 92.167 -63.5 157.5
c0 50.667 16.667 95.834 50 135.501s69.833 70 109.5 91s76.167 46.167 109.5 75.5s50 60.666 50 93.999c0 46.667 -22.833 83.834 -68.5 111.501s-96.5 41.5 -152.5 41.5c-69.333 0 -128.333 -22.5 -177 -67.5s-73 -105.167 -73 -180.5v-1042h-106z" />
    <glyph glyph-name="agrave" unicode="&#xe0;" horiz-adv-x="1067" 
d="M113 305c0 102.667 34.333 182.999 103 240.999s149.667 87 243 87c139.333 0 251.333 -47 336 -141v200c0 70.667 -25 126.334 -75 167.001s-113.333 61 -190 61c-122.667 0 -226.334 -48.667 -311.001 -146l-59 74c102.667 110.667 229.667 166 381 166
c106.667 0 193.334 -26.667 260.001 -80s100 -132.666 100 -237.999v-696h-106v117c-86 -94 -198 -141.333 -336 -142c-91.333 0 -171.833 29.667 -241.5 89s-104.5 139.666 -104.5 240.999zM221 1434h127l316 -295h-91zM225 303.499c0 -71 25 -129.5 75 -175.5
s115.333 -69 196 -69c130 0 229.667 45.333 299 136v217c-69.333 91.333 -169 137 -299 137c-80.667 0 -146 -23.167 -196 -69.5s-75 -105 -75 -176z" />
    <glyph glyph-name="aacute" unicode="&#xe1;" horiz-adv-x="1067" 
d="M113 305c0 102.667 34.333 182.999 103 240.999s149.667 87 243 87c139.333 0 251.333 -47 336 -141v200c0 70.667 -25 126.334 -75 167.001s-113.333 61 -190 61c-122.667 0 -226.334 -48.667 -311.001 -146l-59 74c102.667 110.667 229.667 166 381 166
c106.667 0 193.334 -26.667 260.001 -80s100 -132.666 100 -237.999v-696h-106v117c-86 -94 -198 -141.333 -336 -142c-91.333 0 -171.833 29.667 -241.5 89s-104.5 139.666 -104.5 240.999zM225 303.499c0 -71 25 -129.5 75 -175.5s115.333 -69 196 -69
c130 0 229.667 45.333 299 136v217c-69.333 91.333 -169 137 -299 137c-80.667 0 -146 -23.167 -196 -69.5s-75 -105 -75 -176zM418 1139l315 295h127l-352 -295h-90z" />
    <glyph glyph-name="acircumflex" unicode="&#xe2;" horiz-adv-x="1067" 
d="M113 305c0 102.667 34.333 182.999 103 240.999s149.667 87 243 87c139.333 0 251.333 -47 336 -141v200c0 70.667 -25 126.334 -75 167.001s-113.333 61 -190 61c-122.667 0 -226.334 -48.667 -311.001 -146l-59 74c102.667 110.667 229.667 166 381 166
c106.667 0 193.334 -26.667 260.001 -80s100 -132.666 100 -237.999v-696h-106v117c-86 -94 -198 -141.333 -336 -142c-91.333 0 -171.833 29.667 -241.5 89s-104.5 139.666 -104.5 240.999zM225 303.499c0 -71 25 -129.5 75 -175.5s115.333 -69 196 -69
c130 0 229.667 45.333 299 136v217c-69.333 91.333 -169 137 -299 137c-80.667 0 -146 -23.167 -196 -69.5s-75 -105 -75 -176zM289 1139l198 295h111l203 -295h-82l-176 231l-172 -231h-82z" />
    <glyph glyph-name="atilde" unicode="&#xe3;" horiz-adv-x="1067" 
d="M113 305c0 102.667 34.333 182.999 103 240.999s149.667 87 243 87c139.333 0 251.333 -47 336 -141v200c0 70.667 -25 126.334 -75 167.001s-113.333 61 -190 61c-122.667 0 -226.334 -48.667 -311.001 -146l-59 74c102.667 110.667 229.667 166 381 166
c106.667 0 193.334 -26.667 260.001 -80s100 -132.666 100 -237.999v-696h-106v117c-86 -94 -198 -141.333 -336 -142c-91.333 0 -171.833 29.667 -241.5 89s-104.5 139.666 -104.5 240.999zM225 303.499c0 -71 25 -129.5 75 -175.5s115.333 -69 196 -69
c130 0 229.667 45.333 299 136v217c-69.333 91.333 -169 137 -299 137c-80.667 0 -146 -23.167 -196 -69.5s-75 -105 -75 -176zM225 1147c0 79.333 16.833 144.833 50.5 196.5s80.5 77.5 140.5 77.5c34 0 63.667 -10.833 89 -32.5s43.833 -45.5 55.5 -71.5
s27.334 -50 47.001 -72s41.167 -33 64.5 -33c32.667 0 59.167 16.5 79.5 49.5s30.5 82.167 30.5 147.5h72c0 -80.667 -16.667 -146.5 -50 -197.5s-80 -76.5 -140 -76.5c-34 0 -63.667 10.833 -89 32.5s-43.833 45.5 -55.5 71.5s-27.5 49.833 -47.5 71.5
s-41.333 32.5 -64 32.5c-32.667 0 -59.334 -16.333 -80.001 -49s-31 -81.667 -31 -147h-72z" />
    <glyph glyph-name="adieresis" unicode="&#xe4;" horiz-adv-x="1067" 
d="M113 305c0 102.667 34.333 182.999 103 240.999s149.667 87 243 87c139.333 0 251.333 -47 336 -141v200c0 70.667 -25 126.334 -75 167.001s-113.333 61 -190 61c-122.667 0 -226.334 -48.667 -311.001 -146l-59 74c102.667 110.667 229.667 166 381 166
c106.667 0 193.334 -26.667 260.001 -80s100 -132.666 100 -237.999v-696h-106v117c-86 -94 -198 -141.333 -336 -142c-91.333 0 -171.833 29.667 -241.5 89s-104.5 139.666 -104.5 240.999zM225 303.499c0 -71 25 -129.5 75 -175.5s115.333 -69 196 -69
c130 0 229.667 45.333 299 136v217c-69.333 91.333 -169 137 -299 137c-80.667 0 -146 -23.167 -196 -69.5s-75 -105 -75 -176zM252 1231c0 20.667 7.5 38.5 22.5 53.5s32.667 22.5 53 22.5s38 -7.5 53 -22.5s22.5 -32.833 22.5 -53.5s-7.5 -38.5 -22.5 -53.5
s-32.667 -22.5 -53 -22.5s-38 7.5 -53 22.5s-22.5 32.833 -22.5 53.5zM670 1231c0 20.667 7.5 38.5 22.5 53.5s32.667 22.5 53 22.5s38 -7.5 53 -22.5s22.5 -32.833 22.5 -53.5s-7.5 -38.5 -22.5 -53.5s-32.667 -22.5 -53 -22.5s-38 7.5 -53 22.5s-22.5 32.833 -22.5 53.5z
" />
    <glyph glyph-name="aring" unicode="&#xe5;" horiz-adv-x="1067" 
d="M113 305c0 102.667 34.333 182.999 103 240.999s149.667 87 243 87c139.333 0 251.333 -47 336 -141v200c0 70.667 -25 126.334 -75 167.001s-113.333 61 -190 61c-122.667 0 -226.334 -48.667 -311.001 -146l-59 74c102.667 110.667 229.667 166 381 166
c106.667 0 193.334 -26.667 260.001 -80s100 -132.666 100 -237.999v-696h-106v117c-86 -94 -198 -141.333 -336 -142c-91.333 0 -171.833 29.667 -241.5 89s-104.5 139.666 -104.5 240.999zM225 303.499c0 -71 25 -129.5 75 -175.5s115.333 -69 196 -69
c130 0 229.667 45.333 299 136v217c-69.333 91.333 -169 137 -299 137c-80.667 0 -146 -23.167 -196 -69.5s-75 -105 -75 -176zM344 1323c0 54.667 19.167 101.167 57.5 139.5s84.833 57.5 139.5 57.5c53.333 0 99 -19.167 137 -57.5s57 -84.833 57 -139.5
c0 -53.333 -19 -99.5 -57 -138.5s-83.667 -58.5 -137 -58.5c-54.667 0 -101.167 19.5 -139.5 58.5s-57.5 85.167 -57.5 138.5zM410 1323c0 -35.333 12.833 -66 38.5 -92s56.334 -39 92.001 -39s66.167 13 91.5 39s38 56.667 38 92s-12.667 66 -38 92s-55.833 39 -91.5 39
s-66.334 -13 -92.001 -39s-38.5 -56.667 -38.5 -92z" />
    <glyph glyph-name="ae" unicode="&#xe6;" horiz-adv-x="1837" 
d="M113 305.5c0 101 34 180.831 102 239.498s149.333 88 244 88c138 0 250 -45.667 336 -137v196c0 70.667 -25 126.334 -75 167.001s-113.333 61 -190 61c-122.667 0 -226.334 -48.667 -311.001 -146l-59 74c102.667 110.667 229.667 166 381 166
c95.333 0 172 -20.5 230 -61.5s92.333 -100.5 103 -178.5c36.667 70.667 88.167 128.334 154.5 173.001s145.5 67 237.5 67c143.333 0 256.333 -50.167 339 -150.5s124 -225.166 124 -374.499v-28h-828c5.33301 -112 42.833 -205.5 112.5 -280.5
s161.167 -112.5 274.5 -112.5c128.667 0 236.667 45.667 324 137l55 -70c-102.667 -106.667 -231.667 -160 -387 -160c-176 0 -312 72.667 -408 218c-95.333 -144.667 -231.666 -217.334 -408.999 -218.001c-92.667 0 -174.167 29.833 -244.5 89.5s-105.5 140 -105.5 241z
M225 303.498c0 -71 24.999 -129.5 74.999 -175.5s115.333 -69 196 -69c148.667 0 259.667 66.333 333 199c-23.333 44 -34.666 94.667 -33.999 152c-69.333 92.667 -169 139 -299 139c-80.667 0 -146 -23.167 -196 -69.5s-75 -105 -75 -176zM900.999 544.998h719.001
c0 95.333 -31.333 182 -94 260s-151.334 117 -266.001 117c-108 0 -193.833 -38.667 -257.5 -116s-97.5 -164.333 -101.5 -261z" />
    <glyph glyph-name="ccedilla" unicode="&#xe7;" horiz-adv-x="1011" 
d="M111 496c0 147.333 44.333 270.503 133 369.503s204 148.5 346 148.5c144.667 0 261.334 -56 350.001 -168l-74 -66c-66.667 91.333 -156.667 137.166 -270 137.499s-203.833 -39.5 -271.5 -119.5s-101.5 -180.833 -101.5 -302.5s33.833 -222.667 101.5 -303
s158.167 -120.5 271.5 -120.5c112 0 202 46.333 270 139l74 -66c-83.333 -106.667 -189.666 -163.334 -318.999 -170.001l-33 -86c22 15.333 47.333 23 76 23c39.333 0 71.666 -12.333 96.999 -37s38 -57.334 38 -98.001c0 -48 -19.833 -86.667 -59.5 -116
s-88.834 -44 -147.501 -44c-86 0 -152.333 19.667 -199 59l35 66c46.667 -38 100.667 -57 162 -57c36.667 0 68 8.5 94 25.5s39 39.167 39 66.5c0 54.667 -27.333 82 -82 82c-34 0 -62 -12.333 -84 -37l-55 33l43 122c-131.333 10.667 -236.5 65 -315.5 163
s-118.5 216.667 -118.5 356z" />
    <glyph glyph-name="egrave" unicode="&#xe8;" horiz-adv-x="1161" 
d="M111 496c0 144.667 45 267.168 135 367.501s203.333 150.5 340 150.5c144.667 0 258.667 -49.833 342 -149.5s125 -224.834 125 -375.501v-28h-828c5.33301 -112 42.833 -205.5 112.5 -280.5s161.167 -112.5 274.5 -112.5c131.333 0 239.333 45.667 324 137l55 -70
c-102.667 -106.667 -231.667 -160 -387 -160c-144.667 0 -263 48.667 -355 146s-138 222.333 -138 375zM225 545.001h719c-1.33301 95.333 -33 182 -95 260s-150.333 117 -265 117c-108 0 -193.833 -38.667 -257.5 -116s-97.5 -164.333 -101.5 -261zM268 1434h127l316 -295
h-90z" />
    <glyph glyph-name="eacute" unicode="&#xe9;" horiz-adv-x="1161" 
d="M111 496c0 144.667 45 267.168 135 367.501s203.333 150.5 340 150.5c144.667 0 258.667 -49.833 342 -149.5s125 -224.834 125 -375.501v-28h-828c5.33301 -112 42.833 -205.5 112.5 -280.5s161.167 -112.5 274.5 -112.5c131.333 0 239.333 45.667 324 137l55 -70
c-102.667 -106.667 -231.667 -160 -387 -160c-144.667 0 -263 48.667 -355 146s-138 222.333 -138 375zM225 545.001h719c-1.33301 95.333 -33 182 -95 260s-150.333 117 -265 117c-108 0 -193.833 -38.667 -257.5 -116s-97.5 -164.333 -101.5 -261zM467 1139l315 295h127
l-352 -295h-90z" />
    <glyph glyph-name="ecircumflex" unicode="&#xea;" horiz-adv-x="1161" 
d="M111 496c0 144.667 45 267.168 135 367.501s203.333 150.5 340 150.5c144.667 0 258.667 -49.833 342 -149.5s125 -224.834 125 -375.501v-28h-828c5.33301 -112 42.833 -205.5 112.5 -280.5s161.167 -112.5 274.5 -112.5c131.333 0 239.333 45.667 324 137l55 -70
c-102.667 -106.667 -231.667 -160 -387 -160c-144.667 0 -263 48.667 -355 146s-138 222.333 -138 375zM225 545.001h719c-1.33301 95.333 -33 182 -95 260s-150.333 117 -265 117c-108 0 -193.833 -38.667 -257.5 -116s-97.5 -164.333 -101.5 -261zM334 1139l198 295h111
l203 -295h-82l-176 231l-172 -231h-82z" />
    <glyph glyph-name="edieresis" unicode="&#xeb;" horiz-adv-x="1161" 
d="M111 496c0 144.667 45 267.168 135 367.501s203.333 150.5 340 150.5c144.667 0 258.667 -49.833 342 -149.5s125 -224.834 125 -375.501v-28h-828c5.33301 -112 42.833 -205.5 112.5 -280.5s161.167 -112.5 274.5 -112.5c131.333 0 239.333 45.667 324 137l55 -70
c-102.667 -106.667 -231.667 -160 -387 -160c-144.667 0 -263 48.667 -355 146s-138 222.333 -138 375zM225 545.001h719c-1.33301 95.333 -33 182 -95 260s-150.333 117 -265 117c-108 0 -193.833 -38.667 -257.5 -116s-97.5 -164.333 -101.5 -261zM303 1231
c0 20.667 7.5 38.5 22.5 53.5s32.833 22.5 53.5 22.5s38.5 -7.5 53.5 -22.5s22.5 -32.833 22.5 -53.5s-7.5 -38.5 -22.5 -53.5s-32.833 -22.5 -53.5 -22.5s-38.5 7.5 -53.5 22.5s-22.5 32.833 -22.5 53.5zM721 1231c0 20.667 7.5 38.5 22.5 53.5s32.667 22.5 53 22.5
s38 -7.5 53 -22.5s22.5 -32.833 22.5 -53.5s-7.5 -38.5 -22.5 -53.5s-32.667 -22.5 -53 -22.5s-38 7.5 -53 22.5s-22.5 32.833 -22.5 53.5z" />
    <glyph glyph-name="igrave" unicode="&#xec;" horiz-adv-x="438" 
d="M-102 1434h127l315 -295h-90zM166 0v989h106v-989h-106z" />
    <glyph glyph-name="iacute" unicode="&#xed;" horiz-adv-x="438" 
d="M98 1139l316 295h127l-353 -295h-90zM166 0v989h106v-989h-106z" />
    <glyph glyph-name="icircumflex" unicode="&#xee;" horiz-adv-x="438" 
d="M-37 1139l199 295h110l203 -295h-82l-176 231l-172 -231h-82zM166 0v989h106v-989h-106z" />
    <glyph glyph-name="idieresis" unicode="&#xef;" horiz-adv-x="438" 
d="M-66 1231c0 20.667 7.66699 38.5 23 53.5s33.166 22.5 53.499 22.5s38 -7.5 53 -22.5s22.5 -32.833 22.5 -53.5s-7.5 -38.5 -22.5 -53.5s-32.667 -22.5 -53 -22.5s-38.166 7.5 -53.499 22.5s-23 32.833 -23 53.5zM166 0v989h106v-989h-106zM352 1231
c0 20.667 7.5 38.5 22.5 53.5s32.833 22.5 53.5 22.5s38.5 -7.5 53.5 -22.5s22.5 -32.833 22.5 -53.5s-7.5 -38.5 -22.5 -53.5s-32.833 -22.5 -53.5 -22.5s-38.5 7.5 -53.5 22.5s-22.5 32.833 -22.5 53.5z" />
    <glyph glyph-name="eth" unicode="&#xf0;" 
d="M111 487c0 146 42.332 267.499 126.999 364.499s193.667 145.5 327 145.5c131.333 0 238.666 -59.333 321.999 -178c-78 128.667 -188 246 -330 352l-291 -127l-28 70l247 109c-26 18 -81.333 54 -166 108l62 90c84.667 -52 158.334 -101 221.001 -147l223 98l29 -67
l-186 -84c262 -218.667 393 -459 393 -721c0 -151.333 -43.667 -276.666 -131 -375.999s-202.666 -149 -345.999 -149c-140.667 0 -254.667 48.5 -342 145.5s-131 219.167 -131 366.5zM222.999 486.999c0 -114.667 32.5 -212.5 97.5 -293.5s152.833 -121.5 263.5 -121.5
c112 0 200.333 40.5 265 121.5s97 178.833 97 293.5c0 113.333 -32.333 210.666 -97 291.999s-153 122 -265 122c-110.667 0 -198.5 -40.667 -263.5 -122s-97.5 -178.666 -97.5 -291.999z" />
    <glyph glyph-name="ntilde" unicode="&#xf1;" horiz-adv-x="1105" 
d="M170 0v988.999h106v-149c39.333 46.667 91.833 87.334 157.5 122.001s132.167 52 199.5 52c207.333 0 311 -107.333 311 -322v-692h-106v670c0 90 -20.5 153.833 -61.5 191.5s-100.5 56.5 -178.5 56.5c-61.333 0 -122 -16.5 -182 -49.5s-106.667 -73.167 -140 -120.5
v-748h-106zM240 1147c0 79.333 16.667 144.833 50 196.5s80 77.5 140 77.5c34 0 63.667 -10.833 89 -32.5s43.833 -45.5 55.5 -71.5s27.334 -50 47.001 -72s41.167 -33 64.5 -33c32.667 0 59.334 16.5 80.001 49.5s31 82.167 31 147.5h71
c0 -80.667 -16.667 -146.5 -50 -197.5s-80 -76.5 -140 -76.5c-34 0 -63.667 10.833 -89 32.5s-43.833 45.5 -55.5 71.5s-27.334 49.833 -47.001 71.5s-41.167 32.5 -64.5 32.5c-32.667 0 -59.334 -16.333 -80.001 -49s-31 -81.667 -31 -147h-71z" />
    <glyph glyph-name="ograve" unicode="&#xf2;" 
d="M111 495.5c0 147.667 43.333 271 130 370s201 148.5 343 148.5c143.333 0 258.666 -49.5 345.999 -148.5s131 -222.333 131 -370s-43.667 -271.334 -131 -371.001s-202.666 -149.5 -345.999 -149.5c-142 0 -256.333 49.833 -343 149.5s-130 223.334 -130 371.001z
M223 496c0 -116 32.5 -215.667 97.5 -299s152.833 -125 263.5 -125c112 0 200.333 41.167 265 123.5s97 182.5 97 300.5c0 116 -32.333 215.333 -97 298s-153 124 -265 124c-110.667 0 -198.5 -41.333 -263.5 -124s-97.5 -182 -97.5 -298zM266 1434h127l316 -295h-91z" />
    <glyph glyph-name="oacute" unicode="&#xf3;" 
d="M111 495.5c0 147.667 43.333 271 130 370s201 148.5 343 148.5c143.333 0 258.666 -49.5 345.999 -148.5s131 -222.333 131 -370s-43.667 -271.334 -131 -371.001s-202.666 -149.5 -345.999 -149.5c-142 0 -256.333 49.833 -343 149.5s-130 223.334 -130 371.001z
M223 496c0 -116 32.5 -215.667 97.5 -299s152.833 -125 263.5 -125c112 0 200.333 41.167 265 123.5s97 182.5 97 300.5c0 116 -32.333 215.333 -97 298s-153 124 -265 124c-110.667 0 -198.5 -41.333 -263.5 -124s-97.5 -182 -97.5 -298zM465 1139l315 295h127l-352 -295
h-90z" />
    <glyph glyph-name="ocircumflex" unicode="&#xf4;" 
d="M111 495.5c0 147.667 43.333 271 130 370s201 148.5 343 148.5c143.333 0 258.666 -49.5 345.999 -148.5s131 -222.333 131 -370s-43.667 -271.334 -131 -371.001s-202.666 -149.5 -345.999 -149.5c-142 0 -256.333 49.833 -343 149.5s-130 223.334 -130 371.001z
M223 496c0 -116 32.5 -215.667 97.5 -299s152.833 -125 263.5 -125c112 0 200.333 41.167 265 123.5s97 182.5 97 300.5c0 116 -32.333 215.333 -97 298s-153 124 -265 124c-110.667 0 -198.5 -41.333 -263.5 -124s-97.5 -182 -97.5 -298zM332 1139l198 295h111l203 -295
h-82l-176 231l-172 -231h-82z" />
    <glyph glyph-name="otilde" unicode="&#xf5;" 
d="M111 495.5c0 147.667 43.333 271 130 370s201 148.5 343 148.5c143.333 0 258.666 -49.5 345.999 -148.5s131 -222.333 131 -370s-43.667 -271.334 -131 -371.001s-202.666 -149.5 -345.999 -149.5c-142 0 -256.333 49.833 -343 149.5s-130 223.334 -130 371.001z
M223 496c0 -116 32.5 -215.667 97.5 -299s152.833 -125 263.5 -125c112 0 200.333 41.167 265 123.5s97 182.5 97 300.5c0 116 -32.333 215.333 -97 298s-153 124 -265 124c-110.667 0 -198.5 -41.333 -263.5 -124s-97.5 -182 -97.5 -298zM270 1147
c0 79.333 16.833 144.833 50.5 196.5s80.5 77.5 140.5 77.5c34 0 63.667 -10.833 89 -32.5s43.833 -45.5 55.5 -71.5s27.334 -50 47.001 -72s41.167 -33 64.5 -33c32.667 0 59.167 16.5 79.5 49.5s30.5 82.167 30.5 147.5h72c0 -80.667 -16.667 -146.5 -50 -197.5
s-80 -76.5 -140 -76.5c-34 0 -63.667 10.833 -89 32.5s-43.833 45.5 -55.5 71.5s-27.5 49.833 -47.5 71.5s-41.333 32.5 -64 32.5c-32.667 0 -59.334 -16.333 -80.001 -49s-31 -81.667 -31 -147h-72z" />
    <glyph glyph-name="odieresis" unicode="&#xf6;" 
d="M111 495.5c0 147.667 43.333 271 130 370s201 148.5 343 148.5c143.333 0 258.666 -49.5 345.999 -148.5s131 -222.333 131 -370s-43.667 -271.334 -131 -371.001s-202.666 -149.5 -345.999 -149.5c-142 0 -256.333 49.833 -343 149.5s-130 223.334 -130 371.001z
M223 496c0 -116 32.5 -215.667 97.5 -299s152.833 -125 263.5 -125c112 0 200.333 41.167 265 123.5s97 182.5 97 300.5c0 116 -32.333 215.333 -97 298s-153 124 -265 124c-110.667 0 -198.5 -41.333 -263.5 -124s-97.5 -182 -97.5 -298zM301 1231
c0 20.667 7.5 38.5 22.5 53.5s32.833 22.5 53.5 22.5s38.5 -7.5 53.5 -22.5s22.5 -32.833 22.5 -53.5s-7.5 -38.5 -22.5 -53.5s-32.833 -22.5 -53.5 -22.5s-38.5 7.5 -53.5 22.5s-22.5 32.833 -22.5 53.5zM719 1231c0 20.667 7.5 38.5 22.5 53.5s32.667 22.5 53 22.5
s38 -7.5 53 -22.5s22.5 -32.833 22.5 -53.5s-7.5 -38.5 -22.5 -53.5s-32.667 -22.5 -53 -22.5s-38 7.5 -53 22.5s-22.5 32.833 -22.5 53.5z" />
    <glyph glyph-name="divide" unicode="&#xf7;" horiz-adv-x="1046" 
d="M59 647v86h928v-86h-928zM442 285c0 22 8.33301 40.833 25 56.5s35.834 23.5 57.501 23.5s40.334 -8 56.001 -24s23.5 -34.833 23.5 -56.5s-7.83301 -40.667 -23.5 -57s-34.334 -24.5 -56.001 -24.5s-40.834 7.83301 -57.501 23.5s-25 35.167 -25 58.5zM442 1087.5
c0 21.667 7.83496 40.334 23.502 56.001s35.167 23.5 58.5 23.5c22 0 40.833 -7.83301 56.5 -23.5s23.5 -34.334 23.5 -56.001s-7.83301 -40.667 -23.5 -57s-34.334 -24.5 -56.001 -24.5s-40.834 8.16699 -57.501 24.5s-25 35.333 -25 57z" />
    <glyph glyph-name="oslash" unicode="&#xf8;" 
d="M111 496c0 147.333 43.3311 270.5 129.998 369.5s201 148.5 343 148.5c106.667 0 198.667 -29.333 276 -88l49 63h90l-84 -108c96.667 -100 145.334 -228.333 146.001 -385c0 -147.333 -43.667 -271 -131 -371s-202.666 -150 -345.999 -150
c-112 0 -207.667 32.333 -287 97l-55 -72h-90l92 121c-88.667 97.333 -133 222.333 -133 375zM222.998 496c0 -113.333 29.333 -209.667 88 -289l486 637c-60 49.333 -131 74 -213 74c-110.667 0 -198.5 -41.333 -263.5 -124s-97.5 -182 -97.5 -298zM359.998 153.999
c61.333 -54.667 136 -82 224 -82c112 0 200.333 41.167 265 123.5s97 182.5 97 300.5c0 116 -32.667 215 -98 297z" />
    <glyph glyph-name="ugrave" unicode="&#xf9;" horiz-adv-x="1105" 
d="M166 293l0.00195312 696h106v-672c0 -91.333 20.5 -155 61.5 -191s100.5 -54 178.5 -54c61.333 0 121.666 15.667 180.999 47s106.333 70.333 141 117v753h106v-989h-106v145c-44 -49.333 -97.333 -90 -160 -122s-128.334 -48 -197.001 -48
c-207.333 0.666992 -311 106.667 -311 318zM238.002 1434h127l315 -295h-90z" />
    <glyph glyph-name="uacute" unicode="&#xfa;" horiz-adv-x="1105" 
d="M166 293l0.00195312 696h106v-672c0 -91.333 20.5 -155 61.5 -191s100.5 -54 178.5 -54c61.333 0 121.666 15.667 180.999 47s106.333 70.333 141 117v753h106v-989h-106v145c-44 -49.333 -97.333 -90 -160 -122s-128.334 -48 -197.001 -48
c-207.333 0.666992 -311 106.667 -311 318zM434.002 1139l316 295h127l-353 -295h-90z" />
    <glyph glyph-name="ucircumflex" unicode="&#xfb;" horiz-adv-x="1105" 
d="M166 293l0.00195312 696h106v-672c0 -91.333 20.5 -155 61.5 -191s100.5 -54 178.5 -54c61.333 0 121.666 15.667 180.999 47s106.333 70.333 141 117v753h106v-989h-106v145c-44 -49.333 -97.333 -90 -160 -122s-128.334 -48 -197.001 -48
c-207.333 0.666992 -311 106.667 -311 318zM297.002 1139l199 295h110l203 -295h-82l-176 231l-172 -231h-82z" />
    <glyph glyph-name="udieresis" unicode="&#xfc;" horiz-adv-x="1105" 
d="M166 293l0.00195312 696h106v-672c0 -91.333 20.5 -155 61.5 -191s100.5 -54 178.5 -54c61.333 0 121.666 15.667 180.999 47s106.333 70.333 141 117v753h106v-989h-106v145c-44 -49.333 -97.333 -90 -160 -122s-128.334 -48 -197.001 -48
c-207.333 0.666992 -311 106.667 -311 318zM276.002 1231c0 20.667 7.66699 38.5 23 53.5s33.166 22.5 53.499 22.5s38 -7.5 53 -22.5s22.5 -32.833 22.5 -53.5s-7.5 -38.5 -22.5 -53.5s-32.667 -22.5 -53 -22.5s-38.166 7.5 -53.499 22.5s-23 32.833 -23 53.5z
M694.002 1231c0 20.667 7.5 38.5 22.5 53.5s32.833 22.5 53.5 22.5s38.5 -7.5 53.5 -22.5s22.5 -32.833 22.5 -53.5s-7.5 -38.5 -22.5 -53.5s-32.833 -22.5 -53.5 -22.5s-38.5 7.5 -53.5 22.5s-22.5 32.833 -22.5 53.5z" />
    <glyph glyph-name="yacute" unicode="&#xfd;" horiz-adv-x="985" 
d="M14 989h118.999l361 -864l356 864h121l-512 -1206c-52 -122.667 -136 -184 -252 -184c-39.333 0 -75 4.66699 -107 14l19 98c24.667 -10.667 53.334 -16 86.001 -16c34 0 63 8.83301 87 26.5s45.333 49.167 64 94.5l78 176zM372.999 1139l315 295h127l-352 -295h-90z" />
    <glyph glyph-name="thorn" unicode="&#xfe;" horiz-adv-x="1161" 
d="M166 -377v1743h106v-532c36.667 53.333 85.5 96.666 146.5 129.999s126.833 50 197.5 50c132.667 0 239.667 -46.833 321 -140.5s122 -219.5 122 -377.5c0 -157.333 -40.667 -283.5 -122 -378.5s-188.333 -142.5 -321 -142.5c-142 0 -256.667 61.667 -344 185v-537h-106z
M272 252.001c30 -49.333 75.5 -91.668 136.5 -127.001s124.167 -53 189.5 -53c108 0 192.667 39.5 254 118.5s92 180.833 92 305.5c0 122.667 -30.667 223.667 -92 303s-146 119 -254 119c-66.667 0 -130.167 -17.167 -190.5 -51.5s-105.5 -76.166 -135.5 -125.499v-489z
" />
    <glyph glyph-name="ydieresis" unicode="&#xff;" horiz-adv-x="985" 
d="M14 989h118.999l361 -864l356 864h121l-512 -1206c-52 -122.667 -136 -184 -252 -184c-39.333 0 -75 4.66699 -107 14l19 98c24.667 -10.667 53.334 -16 86.001 -16c34 0 63 8.83301 87 26.5s45.333 49.167 64 94.5l78 176zM208.999 1231c0 20.667 7.5 38.5 22.5 53.5
s32.667 22.5 53 22.5s38 -7.5 53 -22.5s22.5 -32.833 22.5 -53.5s-7.5 -38.5 -22.5 -53.5s-32.667 -22.5 -53 -22.5s-38 7.5 -53 22.5s-22.5 32.833 -22.5 53.5zM626.999 1231c0 20.667 7.5 38.5 22.5 53.5s32.667 22.5 53 22.5s38 -7.5 53 -22.5s22.5 -32.833 22.5 -53.5
s-7.5 -38.5 -22.5 -53.5s-32.667 -22.5 -53 -22.5s-38 7.5 -53 22.5s-22.5 32.833 -22.5 53.5z" />
    <glyph glyph-name="OE" unicode="&#x152;" horiz-adv-x="2283" 
d="M119 682c0 203.333 60.667 371.5 182 504.5s279.666 199.5 474.999 199.5c108 0 208.833 -26.5 302.5 -79.5s165.5 -128.167 215.5 -225.5v285h867v-106h-748v-506h733v-107h-733v-541h748v-106h-867v285c-50.667 -98 -122.667 -174.167 -216 -228.5
s-194 -81.5 -302 -81.5c-195.333 0 -353.666 67 -474.999 201s-182 302.667 -182 506zM242 682c0 -176 49.499 -320 148.499 -432s230.167 -168 393.5 -168c117.333 0 220.833 31.333 310.5 94s156.167 155 199.5 277v460c-42 120 -107.667 211.167 -197 273.5
s-193.666 93.5 -312.999 93.5c-164 0 -295.333 -56 -394 -168s-148 -255.333 -148 -430z" />
    <glyph glyph-name="oe" unicode="&#x153;" horiz-adv-x="1996" 
d="M111 495.5c0 147.667 43.332 271.001 129.999 370.001s201 148.5 343 148.5c62.667 0 119.5 -10.667 170.5 -32s93 -49 126 -83s59 -66.667 78 -98s34.167 -63.333 45.5 -96c26 75.333 74 145.666 144 210.999s161 98 273 98c144.667 0 258.667 -49.833 342 -149.5
s125 -224.834 125 -375.501v-28h-825c4 -112 40.833 -205.5 110.5 -280.5s161.167 -112.5 274.5 -112.5c131.333 0 239.333 45.667 324 137l57 -70c-104 -106.667 -233 -160 -387 -160c-121.333 0 -218.333 31.833 -291 95.5s-121.667 135.167 -147 214.5
c-12 -34 -28 -66.833 -48 -98.5s-46.167 -64.5 -78.5 -98.5s-73.666 -61.333 -123.999 -82s-106.833 -31 -169.5 -31c-142 0 -256.333 49.833 -343 149.5s-130 223.334 -130 371.001zM222.999 495.501c0 -117.667 32.833 -217.999 98.5 -300.999
s153.167 -124.5 262.5 -124.5c110.667 0 198.667 41.167 264 123.5s98 183.166 98 302.499c0 117.333 -32.667 217 -98 299s-153.333 123 -264 123c-109.333 0 -196.833 -41 -262.5 -123s-98.5 -181.833 -98.5 -299.5zM1061 545.002h719c0 95.333 -31.5 182 -94.5 260
s-151.833 117 -266.5 117c-108 0 -193.667 -38.667 -257 -116s-97 -164.333 -101 -261z" />
    <glyph glyph-name="Ydieresis" unicode="&#x178;" horiz-adv-x="1265" 
d="M31 1366h141l461 -672l461 672h141l-543 -782v-584h-119v584zM356 1575c0 20.667 7.5 38.5 22.5 53.5s32.833 22.5 53.5 22.5s38.5 -7.5 53.5 -22.5s22.5 -32.833 22.5 -53.5s-7.5 -38.5 -22.5 -53.5s-32.833 -22.5 -53.5 -22.5s-38.5 7.5 -53.5 22.5
s-22.5 32.833 -22.5 53.5zM774 1575c0 20.667 7.5 38.5 22.5 53.5s32.833 22.5 53.5 22.5s38.5 -7.5 53.5 -22.5s22.5 -32.833 22.5 -53.5s-7.5 -38.5 -22.5 -53.5s-32.833 -22.5 -53.5 -22.5s-38.5 7.5 -53.5 22.5s-22.5 32.833 -22.5 53.5z" />
    <glyph glyph-name="circumflex" unicode="&#x2c6;" horiz-adv-x="512" 
d="M0 1139l199 295h110l203 -295h-82l-176 231l-172 -231h-82z" />
    <glyph glyph-name="tilde" unicode="&#x2dc;" horiz-adv-x="628" 
d="M0 1147c0 79.333 16.667 144.833 50 196.5s80 77.5 140 77.5c34 0 63.667 -10.833 89 -32.5s43.833 -45.5 55.5 -71.5s27.5 -50 47.5 -72s41.333 -33 64 -33c32.667 0 59.334 16.5 80.001 49.5s31 82.167 31 147.5h72c0 -80.667 -16.833 -146.5 -50.5 -197.5
s-80.5 -76.5 -140.5 -76.5c-34 0 -63.667 10.833 -89 32.5s-43.833 45.5 -55.5 71.5s-27.334 49.833 -47.001 71.5s-41.167 32.5 -64.5 32.5c-32.667 0 -59.167 -16.333 -79.5 -49s-30.5 -81.667 -30.5 -147h-72z" />
    <glyph glyph-name="uni2000" unicode="&#x2000;" horiz-adv-x="905" 
 />
    <glyph glyph-name="uni2001" unicode="&#x2001;" horiz-adv-x="1810" 
 />
    <glyph glyph-name="uni2002" unicode="&#x2002;" horiz-adv-x="905" 
 />
    <glyph glyph-name="uni2003" unicode="&#x2003;" horiz-adv-x="1810" 
 />
    <glyph glyph-name="uni2004" unicode="&#x2004;" horiz-adv-x="602" 
 />
    <glyph glyph-name="uni2005" unicode="&#x2005;" horiz-adv-x="452" 
 />
    <glyph glyph-name="uni2006" unicode="&#x2006;" horiz-adv-x="301" 
 />
    <glyph glyph-name="uni2007" unicode="&#x2007;" horiz-adv-x="301" 
 />
    <glyph glyph-name="uni2008" unicode="&#x2008;" horiz-adv-x="225" 
 />
    <glyph glyph-name="uni2009" unicode="&#x2009;" horiz-adv-x="360" 
 />
    <glyph glyph-name="uni200A" unicode="&#x200a;" horiz-adv-x="100" 
 />
    <glyph glyph-name="uni2010" unicode="&#x2010;" horiz-adv-x="614" 
d="M61 446v99h492v-99h-492z" />
    <glyph glyph-name="uni2011" unicode="&#x2011;" horiz-adv-x="614" 
d="M61 446v99h492v-99h-492z" />
    <glyph glyph-name="figuredash" unicode="&#x2012;" horiz-adv-x="614" 
d="M61 446v99h492v-99h-492z" />
    <glyph glyph-name="endash" unicode="&#x2013;" horiz-adv-x="1214" 
d="M61 446v99h1092v-99h-1092z" />
    <glyph glyph-name="emdash" unicode="&#x2014;" horiz-adv-x="1705" 
d="M61 446v99h1584v-99h-1584z" />
    <glyph glyph-name="quoteleft" unicode="&#x2018;" horiz-adv-x="448" 
d="M104 1108c0 54.667 14.002 107.167 42.002 157.5s63.333 90.5 106 120.5l59 -49c-32.667 -22 -59.834 -51 -81.501 -87s-33.834 -70.333 -36.501 -103c0 2.66699 6.66699 4 20 4c24.667 0 44.834 -8.16699 60.501 -24.5s23.5 -36.833 23.5 -61.5
c0 -23.333 -8.5 -43.833 -25.5 -61.5s-37.833 -26.5 -62.5 -26.5c-28.667 0 -53.334 11.667 -74.001 35s-31 55.333 -31 96z" />
    <glyph glyph-name="quoteright" unicode="&#x2019;" horiz-adv-x="448" 
d="M119 1026c32.667 22 59.833 51.001 81.5 87.001s34.167 70.667 37.5 104c0 -2.66699 -7 -4.33398 -21 -5.00098c-24.667 0 -44.834 8.33301 -60.501 25s-23.5 37 -23.5 61c0 23.333 8.5 43.833 25.5 61.5s37.833 26.5 62.5 26.5c28.667 0 53.334 -11.5 74.001 -34.5
s31 -55.167 31 -96.5c0 -54.667 -14 -107.167 -42 -157.5s-63.333 -90.5 -106 -120.5z" />
    <glyph glyph-name="quotesinglbase" unicode="&#x201a;" horiz-adv-x="448" 
d="M119 -201c32.667 22 59.833 51.168 81.5 87.501s34.167 70.166 37.5 101.499c-9.33301 -1.33301 -16.333 -2 -21 -2c-24.667 0 -44.834 8.16699 -60.501 24.5s-23.5 36.833 -23.5 61.5c0 23.333 8.5 43.833 25.5 61.5s37.833 26.5 62.5 26.5
c28.667 0 53.334 -11.667 74.001 -35s31 -55.333 31 -96c0 -54.667 -14 -107.667 -42 -159s-63.333 -91.333 -106 -120z" />
    <glyph glyph-name="quotedblleft" unicode="&#x201c;" horiz-adv-x="739" 
d="M123 1108c0 54.667 13.999 107.166 41.999 157.499s62.333 90.5 103 120.5l62 -49c-32.667 -23.333 -60.667 -52.666 -84 -87.999s-35.666 -69.333 -36.999 -102c2.66699 2.66699 10 4 22 4c23.333 0 42.833 -8.16699 58.5 -24.5s23.5 -36.833 23.5 -61.5
s-8.16699 -45.5 -24.5 -62.5s-36.833 -25.5 -61.5 -25.5c-28.667 0 -53.167 11.667 -73.5 35s-30.5 55.333 -30.5 96zM413.999 1108c0 54.667 13.667 107.166 41 157.499s62 90.5 104 120.5l62 -49c-32.667 -23.333 -60.667 -52.666 -84 -87.999
s-35.666 -69.333 -36.999 -102c2.66699 2.66699 10 4 22 4c23.333 0 42.833 -8.16699 58.5 -24.5s23.5 -36.833 23.5 -61.5s-8.5 -45.5 -25.5 -62.5s-37.833 -25.5 -62.5 -25.5c-28.667 0 -52.834 11.667 -72.501 35s-29.5 55.333 -29.5 96z" />
    <glyph glyph-name="quotedblright" unicode="&#x201d;" horiz-adv-x="739" 
d="M119 1026c32.667 22 59.833 51.001 81.5 87.001s34.167 70.667 37.5 104c0 -2.66699 -7 -4.33398 -21 -5.00098c-24.667 0 -44.834 8.33301 -60.501 25s-23.5 37 -23.5 61c0 23.333 8.5 43.833 25.5 61.5s37.833 26.5 62.5 26.5c28.667 0 53.334 -11.5 74.001 -34.5
s31 -55.167 31 -96.5c0 -54.667 -14 -107.167 -42 -157.5s-63.333 -90.5 -106 -120.5zM407.999 1026c32.667 23.333 60.499 52.6689 83.499 88.002s35.167 69.666 36.5 102.999c-2.66699 -2.66699 -10 -4.33398 -22 -5.00098c-23.333 0 -42.833 8.33301 -58.5 25
s-23.5 37.167 -23.5 61.5s8.5 45 25.5 62s37.833 25.5 62.5 25.5c28.667 0 52.834 -11.5 72.501 -34.5s29.5 -55.167 29.5 -96.5c0 -54.667 -13.667 -107.167 -41 -157.5s-62 -90.5 -104 -120.5z" />
    <glyph glyph-name="quotedblbase" unicode="&#x201e;" horiz-adv-x="739" 
d="M119 -201c32.667 22 59.833 51.168 81.5 87.501s34.167 70.166 37.5 101.499c-9.33301 -1.33301 -16.333 -2 -21 -2c-24.667 0 -44.834 8.16699 -60.501 24.5s-23.5 36.833 -23.5 61.5c0 23.333 8.5 43.833 25.5 61.5s37.833 26.5 62.5 26.5
c28.667 0 53.334 -11.667 74.001 -35s31 -55.333 31 -96c0 -54.667 -14 -107.667 -42 -159s-63.333 -91.333 -106 -120zM407.999 -200.999c32.667 22 60.167 51.1689 82.5 87.502s34.833 70.166 37.5 101.499h-8c-6.66699 -1.33301 -11.334 -2 -14.001 -2
c-23.333 0 -42.833 8.16699 -58.5 24.5s-23.5 36.833 -23.5 61.5s8.5 45.5 25.5 62.5s37.833 25.5 62.5 25.5c28.667 0 52.834 -11.667 72.501 -35s29.5 -55.333 29.5 -96c0 -56 -13.667 -109.333 -41 -160s-62 -90.334 -104 -119.001z" />
    <glyph glyph-name="bullet" unicode="&#x2022;" horiz-adv-x="733" 
d="M158 496c0 58.667 20.5 108.5 61.5 149.5s90.833 61.5 149.5 61.5s108.5 -20.5 149.5 -61.5s61.5 -90.833 61.5 -149.5c0 -57.333 -20.5 -106.5 -61.5 -147.5s-90.833 -61.5 -149.5 -61.5s-108.5 20.5 -149.5 61.5s-61.5 90.167 -61.5 147.5z" />
    <glyph glyph-name="ellipsis" unicode="&#x2026;" horiz-adv-x="1345" 
d="M135 72c0 23.333 8.83301 43.833 26.5 61.5s38.834 26.5 63.501 26.5s45.834 -9 63.501 -27s26.5 -38.333 26.5 -61c0 -24.667 -8.83301 -45.834 -26.5 -63.501s-38.834 -26.5 -63.501 -26.5s-45.834 8.83301 -63.501 26.5s-26.5 38.834 -26.5 63.501zM584 72
c0 23.333 8.83301 43.833 26.5 61.5s38.834 26.5 63.501 26.5s45.834 -9 63.501 -27s26.5 -38.333 26.5 -61c0 -24.667 -8.83301 -45.834 -26.5 -63.501s-38.834 -26.5 -63.501 -26.5s-45.834 8.83301 -63.501 26.5s-26.5 38.834 -26.5 63.501zM1032 72
c0 23.333 8.83301 43.833 26.5 61.5s38.834 26.5 63.501 26.5s45.834 -9 63.501 -27s26.5 -38.333 26.5 -61c0 -24.667 -8.83301 -45.834 -26.5 -63.501s-38.834 -26.5 -63.501 -26.5s-45.834 8.83301 -63.501 26.5s-26.5 38.834 -26.5 63.501z" />
    <glyph glyph-name="uni202F" unicode="&#x202f;" horiz-adv-x="360" 
 />
    <glyph glyph-name="guilsinglleft" unicode="&#x2039;" horiz-adv-x="567" 
d="M61 498l328 362h117l-328 -362l328 -369h-117z" />
    <glyph glyph-name="guilsinglright" unicode="&#x203a;" horiz-adv-x="567" 
d="M61 129l328 369l-328 362h117l328 -362l-328 -369h-117z" />
    <glyph glyph-name="uni205F" unicode="&#x205f;" horiz-adv-x="452" 
 />
    <glyph glyph-name="Euro" unicode="&#x20ac;" horiz-adv-x="1413" 
d="M72 496l0.000976562 83.998h96c-4 32.667 -6 66.667 -6 102c0 36.667 2 72 6 106h-96v84h112c38 155.333 118.167 280.333 240.5 375s265.5 142 429.5 142c204.667 0 370.667 -80.667 498 -242l-99 -64c-44 60 -101.333 108.167 -172 144.5s-146.334 54.5 -227.001 54.5
c-130 0 -244.5 -37.167 -343.5 -111.5s-166.167 -173.833 -201.5 -298.5h668v-84h-684c-5.33301 -31.333 -8 -66.666 -8 -105.999c0 -35.333 2 -69.333 6 -102h686v-84h-668c35.333 -125.333 102.5 -225.666 201.5 -300.999s213.5 -113 343.5 -113
c80.667 0 156.5 18 227.5 54s128.167 84.333 171.5 145l101 -62c-134 -162.667 -300.667 -244 -500 -244c-165.333 0 -309 47.167 -431 141.5s-202.333 220.833 -241 379.5h-110z" />
    <glyph glyph-name="trademark" unicode="&#x2122;" horiz-adv-x="929" 
d="M35 1313v53h311v-53h-127v-398h-57v398h-127zM420 915v451h88l131 -328l131 328h88v-451h-57v373l-154 -373h-16l-154 373v-373h-57z" />
    <glyph glyph-name="uniE000" unicode="&#xe000;" horiz-adv-x="990" 
d="M0 990h990v-990h-990v990z" />
    <glyph glyph-name="uniFB01" unicode="&#xfb01;" horiz-adv-x="978" 
d="M37 895l0.000976562 94.001h164v90c0 96.667 23.833 172 71.5 226s113.167 81 196.5 81c53.333 0 97.666 -10 132.999 -30l-33 -88c-26 15.333 -56 22.666 -90 21.999c-113.333 0 -170 -70.333 -170 -211v-90h201v-94h-201v-895h-108v895h-164zM680.001 1227
c0 22 8.16699 40.833 24.5 56.5s35.5 23.5 57.5 23.5c23.333 0 42.833 -7.83301 58.5 -23.5s23.5 -34.5 23.5 -56.5c0 -23.333 -8.16699 -42.833 -24.5 -58.5s-35.5 -23.5 -57.5 -23.5s-41.167 8.16699 -57.5 24.5s-24.5 35.5 -24.5 57.5zM709.001 0.000976562v989h106v-989
h-106z" />
    <glyph glyph-name="uniFB02" unicode="&#xfb02;" horiz-adv-x="978" 
d="M37 895l0.000976562 94.001h164v90c0 96.667 23.833 172 71.5 226s113.167 81 196.5 81c53.333 0 97.666 -10 132.999 -30l-33 -88c-26 15.333 -56 22.666 -90 21.999c-113.333 0 -170 -70.333 -170 -211v-90h201v-94h-201v-895h-108v895h-164zM709.001 0.000976562v1366
h106v-1366h-106z" />
    <glyph glyph-name="uniFB03" unicode="&#xfb03;" horiz-adv-x="1521" 
d="M37 895l-0.000976562 94h164v90c0 95.333 23.833 170.333 71.5 225s113.167 82 196.5 82c72.667 0 135.334 -23 188.001 -69l-51 -78c-36.667 34 -79 51 -127 51c-113.333 0 -170 -70.333 -170 -211v-90h201v-94h-201v-895h-108v895h-164zM579.999 895
l0.000976562 94.001h163v90c0 96.667 24 172 72 226s113.667 81 197 81c53.333 0 97.666 -10 132.999 -30l-33 -88c-26 15.333 -56 22.666 -90 21.999c-113.333 0 -170 -70.333 -170 -211v-90h201v-94h-201v-895h-109v895h-163zM1223 1227c0 22 8.16895 40.833 24.502 56.5
s35.5 23.5 57.5 23.5c23.333 0 42.666 -7.83301 57.999 -23.5s23 -34.5 23 -56.5c0 -23.333 -7.83301 -42.833 -23.5 -58.5s-34.834 -23.5 -57.501 -23.5c-22 0 -41.167 8.16699 -57.5 24.5s-24.5 35.5 -24.5 57.5zM1251 0.000976562v989h107v-989h-107z" />
    <glyph glyph-name="uniFB04" unicode="&#xfb04;" horiz-adv-x="1521" 
d="M37 895l-0.000976562 94h164v90c0 95.333 23.833 170.333 71.5 225s113.167 82 196.5 82c72.667 0 135.334 -23 188.001 -69l-51 -78c-36.667 34 -79 51 -127 51c-113.333 0 -170 -70.333 -170 -211v-90h201v-94h-201v-895h-108v895h-164zM579.999 895
l0.000976562 94.001h163v90c0 96.667 24 172 72 226s113.667 81 197 81c53.333 0 97.666 -10 132.999 -30l-33 -88c-26 15.333 -56 22.666 -90 21.999c-113.333 0 -170 -70.333 -170 -211v-90h201v-94h-201v-895h-109v895h-163zM1251 0.000976562v1366h107v-1366h-107z" />
    <glyph glyph-name=".null" horiz-adv-x="0" 
 />
    <glyph glyph-name="nonmarkingreturn" horiz-adv-x="682" 
 />
    </font>
</defs>
</svg>
