<?xml version="1.0" encoding="utf-8"?>
<!-- Generator: Adobe Illustrator 16.0.0, SVG Export Plug-In . SVG Version: 6.00 Build 0)  -->
<!DOCTYPE svg PUBLIC "-//W3C//DTD SVG 1.1//EN" "http://www.w3.org/Graphics/SVG/1.1/DTD/svg11.dtd">
<svg version="1.1" xmlns="http://www.w3.org/2000/svg" xmlns:xlink="http://www.w3.org/1999/xlink" x="0px" y="0px" width="561px"
	 height="457px" viewBox="27.5 106.5 561 457" enable-background="new 27.5 106.5 561 457" xml:space="preserve">
<g id="Layer_2">
	<path d="M559.309,287.652c-2.448-2.448-5.509-4.284-9.181-5.508c-0.612,0-1.224-0.612-1.836-0.612l-1.836-0.612l0,0l-34.272-8.568
		l26.316-26.316c17.136-17.136,22.645-39.78,14.076-60.588c-9.792-23.868-36.108-38.556-67.932-38.556H305.94
		c-6.732,0-12.853,2.448-17.749,7.344L80.112,362.317c-1.224,1.224-1.836,1.836-3.06,3.06l-1.224,1.224l0,0
		c-15.3,17.137-25.092,39.167-25.092,63.648c0,52.02,42.228,94.859,94.86,94.859h201.348c6.731,0,12.852-2.447,17.748-7.344
		L559.92,322.536c4.896-4.896,7.344-11.016,7.344-17.748C566.652,298.668,564.204,292.548,559.309,287.652z M518.916,293.16
		L335.928,476.148H144.984c-24.48,0-44.676-20.195-44.676-44.676s20.196-44.676,44.676-44.676H296.76
		c7.344,0,12.852,5.508,12.852,12.852c0,7.344-5.508,12.852-12.852,12.852H153.552c-13.464,0-25.092,11.016-25.092,25.092
		s11.016,25.092,25.092,25.092H296.76c17.136,0,32.436-6.73,44.064-18.359l0,0l156.06-156.06L518.916,293.16z M301.044,167.7
		c1.224-1.224,3.06-1.836,4.896-1.836h178.704c24.479,0,44.063,10.404,50.796,27.54c5.508,13.464,1.836,28.764-9.792,40.392
		L359.796,399.037c0-34.273-27.54-62.425-61.812-62.425h-153c-4.896,0-9.792,0.612-14.076,1.224L301.044,167.7z M546.456,310.296
		L351.229,505.523c-1.225,1.225-3.061,1.836-4.896,1.836H144.984c-42.228,0-76.5-34.271-76.5-76.5
		c0-20.195,7.956-38.555,20.808-52.019l3.06-3.061c13.464-12.852,31.824-20.808,52.02-20.808H296.76
		c23.868,0,44.064,20.196,44.064,44.065c0,12.238-4.896,23.256-12.853,31.211l0,0C320.016,438.205,309,443.1,296.76,443.1H153.552
		c-3.672,0-6.732-3.059-6.732-6.73s3.06-6.732,6.732-6.732H296.76c17.136,0,31.211-14.076,31.211-31.213
		c0-17.135-14.075-31.211-31.211-31.211H144.984c-34.884,0-63.036,28.151-63.036,63.036c0,34.885,28.152,63.037,63.036,63.037h198.9
		l193.393-193.393c2.448-2.448,6.731-2.448,9.18,0c1.224,1.224,1.836,3.06,1.836,4.896
		C548.292,307.236,547.68,309.072,546.456,310.296z"/>
</g>
<g id="Layer_3">
</g>
</svg>
