<?xml version="1.0" standalone="no"?> <!DOCTYPE svg PUBLIC "-//W3C//DTD SVG 1.0//EN" "http://www.w3.org/TR/2001/REC-SVG-20010904/DTD/svg10.dtd" > <svg xmlns="http://www.w3.org/2000/svg" width="100%" height="100%">
<defs >
<font id="avenirltstdbook" horiz-adv-x="914" ><font-face
    font-family="Avenir LT Std 45 Book"
    units-per-em="2048"
    panose-1="2 11 5 2 2 2 3 2 2 4"
    ascent="1548"
    descent="-500"
    alphabetic="0" />
<missing-glyph horiz-adv-x="1024" d="M0 0V1434H1024V0H0ZM512 809L860 1331H164L512 809ZM573 717L922 195V1239L573 717ZM164 102H860L512 625L164 102ZM102 1239V195L451 717L102 1239Z" />
<glyph unicode=" " glyph-name="space" horiz-adv-x="569" />
<glyph unicode="!" glyph-name="exclam" horiz-adv-x="569" d="M358 1450V393H211V1450H358ZM395 98Q395 54 364 21T285 -12Q237 -12 206 21T174 98Q174 143 205 176T285 209Q332 209 363 176T395 98Z" />
<glyph unicode="&quot;" glyph-name="quotedbl" horiz-adv-x="1062" d="M322 969V1450H444V969H322ZM618 969V1450H741V969H618Z" />
<glyph unicode="#" glyph-name="numbersign" horiz-adv-x="1138" d="M219 0L281 438H72V561H297L342 893H121V1016H360L420 1450H545L485 1016H758L817 1450H942L883 1016H1067V893H864L819 561H1014V438H803L741 0H616L678 438H406L344 0H219ZM467 893L422 561H694L739
893H467Z" />
<glyph unicode="$" glyph-name="dollar" horiz-adv-x="1138" d="M520 829V1346Q411 1338 342 1264T272 1083Q272 1033 291 993T346 922T423 871T520 829ZM618 643V102Q662 102 705 115T791 156T859 239T887 365Q888 464 816 534T618 643ZM520 100V672Q440 697
378 726T255 802T159 919T125 1079Q125 1193 182 1283T328 1422T520 1479V1622H618V1483Q751 1483 840 1436T997 1309L883 1210Q841 1279 769 1314T618 1348V801Q677 780 719 762T814 716T902 656T970 581T1018 484T1034 365Q1034 197 916 88T618 -33V-172H520V-37Q383
-30 268 33T88 188L211 276Q276 195 364 147T520 100Z" />
<glyph unicode="%" glyph-name="percent" horiz-adv-x="1705" d="M799 1267T799 1116T695 862T438 758T182 861T78 1116T182 1371T438 1475Q590 1475 694 1371ZM676 1016T676 1116T606 1284T438 1352T271 1284T201 1116T270 949T438 881T606 948ZM1628 485T1628
334T1524 79T1268 -25Q1116 -25 1012 79T907 334T1011 588T1268 692T1524 589ZM1505 234T1505 334T1436 501T1268 569T1100 502T1030 334T1100 166T1268 98T1435 166ZM1366 1458L444 -63L338 -8L1262 1513L1366 1458Z" />
<glyph unicode="&amp;" glyph-name="ampersand" horiz-adv-x="1441" d="M1350 784L1083 336L1409 0H1200L995 213Q900 88 797 26T553 -37Q430 -37 328 11T162 155T98 377Q98 649 428 805Q258 987 258 1145Q258 1304 360 1395T621 1487Q771 1487 871 1401T971 1161Q971
1106 952 1056T903 969T828 896T743 835T651 784L985 440L1184 784H1350ZM823 1161Q823 1246 765 1299T623 1352Q530 1352 468 1294T406 1139Q406 1073 457 998T557 879Q565 883 599 902T646 929T689 956T732 988T767 1022T798 1063T815 1108T823 1161ZM903 311L520
713Q374 631 316 558T258 375Q258 255 345 177T555 98Q612 98 661 113T754 161T830 227T903 311Z" />
<glyph unicode="&apos;" glyph-name="quotesingle" horiz-adv-x="532" d="M205 969V1450H328V969H205Z" />
<glyph unicode="(" glyph-name="parenleft" horiz-adv-x="532" d="M408 1507L516 1438Q375 1211 311 1021T246 590Q246 351 307 168T508 -246L399 -328Q262 -137 187 102T111 590Q111 830 187 1070T408 1507Z" />
<glyph unicode=")" glyph-name="parenright" horiz-adv-x="532" d="M125 -328L16 -258Q157 -30 222 160T287 590Q287 829 226 1012T25 1425L133 1507Q270 1315 346 1076T422 590Q422 350 346 110T125 -328Z" />
<glyph unicode="*" glyph-name="asterisk" horiz-adv-x="909" d="M516 1450V1157L803 1249L846 1135L557 1042L741 795L643 721L455 975L266 721L168 795L352 1042L63 1135L106 1249L393 1157V1450H516Z" />
<glyph unicode="+" glyph-name="plus" horiz-adv-x="1363" d="M743 1143V682H1204V559H743V98H621V559H160V682H621V1143H743Z" />
<glyph unicode="," glyph-name="comma" horiz-adv-x="569" d="M436 195L270 -287H133L270 195H436Z" />
<glyph unicode="-" glyph-name="hyphen" horiz-adv-x="681" d="M604 559V424H78V559H604Z" />
<glyph unicode="." glyph-name="period" horiz-adv-x="569" d="M395 98Q395 54 364 21T285 -12Q237 -12 206 21T174 98Q174 143 205 176T285 209Q332 209 363 176T395 98Z" />
<glyph unicode="/" glyph-name="slash" horiz-adv-x="757" d="M748 1446L129 -37L10 2L631 1487L748 1446Z" />
<glyph unicode="0" glyph-name="zero" horiz-adv-x="1138" d="M483 1475T569 1475T727 1450T849 1383T937 1281T999 1156T1036 1014T1056 869T1061 725T1056 582T1037 436T999 295T938 170T849 67T727 0T569 -25T412 0T290 67T202 169T140 294T103 436T83 581T78
725T83 868T102 1014T140 1155T201 1280T290 1383T411 1450ZM569 1339Q225 1339 225 725T569 111Q634 111 687 133T775 192T837 281T877 387T899 504T910 618T913 725T911 831T900 946T877 1063T837 1168T776 1258T687 1316T569 1339Z" />
<glyph unicode="1" glyph-name="one" horiz-adv-x="1138" d="M713 1450V0H565V1266L305 1036L213 1147L582 1450H713Z" />
<glyph unicode="2" glyph-name="two" horiz-adv-x="1138" d="M1020 135V0H98V170L676 758Q718 800 743 830T799 903T845 992T860 1085Q860 1202 780 1270T580 1339Q471 1339 393 1278T291 1112L135 1128Q166 1288 283 1381T569 1475Q658 1475 736 1451T876 1381T972
1262T1008 1098Q1008 1044 998 995T963 898T917 815T854 733T788 662T715 588L258 135H1020Z" />
<glyph unicode="3" glyph-name="three" horiz-adv-x="1138" d="M418 692V827H494Q634 827 722 892T811 1094Q811 1210 740 1274T543 1339Q360 1339 266 1180L137 1245Q264 1475 539 1475Q717 1475 837 1374T958 1098Q958 983 887 891T713 766L719 762Q843 736
920 633T997 393Q997 263 934 167T766 23T535 -25Q192 -25 78 268L233 315Q271 210 345 161T547 111Q674 111 762 191T850 397Q850 461 830 511T776 595T693 651T593 682T481 692H418Z" />
<glyph unicode="4" glyph-name="four" horiz-adv-x="1138" d="M852 1450V479H1061V344H852V0H705V344H78V512L664 1450H852ZM705 479V1303H700L201 479H705Z" />
<glyph unicode="5" glyph-name="five" horiz-adv-x="1138" d="M952 1450V1315H358L350 879Q438 913 545 913Q747 913 875 782T1004 449Q1004 240 866 108T516 -25Q378 -25 267 42T98 233L244 297Q286 211 360 161T528 111Q666 111 761 205T856 434Q856 587 756
682T500 778Q346 778 199 698L213 1450H952Z" />
<glyph unicode="6" glyph-name="six" horiz-adv-x="1138" d="M788 1450L393 827L397 823Q430 846 487 859T598 872Q788 872 914 745T1040 424Q1040 226 908 101T569 -25Q364 -25 231 100T98 424Q98 534 129 622T223 813L614 1450H788ZM246 562T246 424T336 199T569
111Q712 111 802 198T893 424T803 649T569 737Q427 737 337 650Z" />
<glyph unicode="7" glyph-name="seven" horiz-adv-x="1138" d="M971 1450V1315L387 0H221L817 1315H111V1450H971Z" />
<glyph unicode="8" glyph-name="eight" horiz-adv-x="1138" d="M381 768V772Q286 804 225 894T164 1096Q164 1264 282 1369T569 1475T856 1370T975 1096Q975 985 914 895T758 772V768Q880 736 954 633T1028 387Q1028 265 964 170T796 25T569 -25Q447 -25 343 24T175
169T111 387Q111 529 185 632T381 768ZM827 1083Q827 1195 753 1267T569 1339T385 1267T311 1083T385 900T569 827T753 899T827 1083ZM881 279T881 408T795 621T569 705Q430 705 344 621T258 408T344 195T569 111Q709 111 795 195Z" />
<glyph unicode="9" glyph-name="nine" horiz-adv-x="1138" d="M350 0L745 623L741 627Q708 604 651 591T541 578Q351 578 225 705T98 1026Q98 1224 231 1349T569 1475Q775 1475 907 1350T1040 1026Q1040 915 1009 826T915 637L524 0H350ZM893 888T893 1026T803
1251T569 1339Q427 1339 337 1252T246 1026T336 801T569 713Q712 713 802 800Z" />
<glyph unicode=":" glyph-name="colon" horiz-adv-x="569" d="M395 902T395 858T364 781T285 748Q237 748 206 781T174 858T205 935T285 969Q332 969 363 936ZM395 98Q395 54 364 21T285 -12Q237 -12 206 21T174 98Q174 143 205 176T285 209Q332 209 363 176T395 98Z" />
<glyph unicode=";" glyph-name="semicolon" horiz-adv-x="569" d="M436 195L270 -287H133L270 195H436ZM414 902T414 858T383 781T303 748Q256 748 225 781T193 858T224 935T303 969Q351 969 382 936Z" />
<glyph unicode="&lt;" glyph-name="less" horiz-adv-x="1363" d="M1204 1155V1032L326 621L1204 209V86L160 573V668L1204 1155Z" />
<glyph unicode="=" glyph-name="equal" horiz-adv-x="1363" d="M160 836H1204V713H160V836ZM160 528H1204V406H160V528Z" />
<glyph unicode="&gt;" glyph-name="greater" horiz-adv-x="1363" d="M160 1032V1155L1204 668V573L160 86V209L1038 621L160 1032Z" />
<glyph unicode="?" glyph-name="question" horiz-adv-x="987" d="M565 498V393H418V563Q419 608 437 650T485 727T550 794T621 861T685 930T732 1010T750 1104Q750 1208 683 1273T510 1339Q408 1339 338 1278T250 1116L96 1135Q119 1293 232 1384T508 1475Q678
1475 787 1380T897 1116Q897 1045 879 988T831 893T767 822T696 757T631 691T584 608T565 498ZM614 98Q614 54 583 21T504 -12Q456 -12 425 21T393 98Q393 143 424 176T504 209Q551 209 582 176T614 98Z" />
<glyph unicode="@" glyph-name="at" horiz-adv-x="1638" d="M1030 838Q1030 923 980 982T864 1042Q770 1038 689 967T564 797T520 600Q520 514 574 459T713 403T872 477T989 652T1030 838ZM1102 997L1147 1126H1262L1090 549Q1071 489 1071 444Q1071 428 1084
416T1118 403Q1188 403 1260 466T1379 635T1427 850Q1427 999 1344 1121T1129 1310T854 1376Q682 1376 533 1285T298 1043T211 725T297 407T533 166T854 74Q1009 74 1150 140T1372 322H1501Q1404 154 1230 59T854 -37Q648 -37 472 63T192 339T88 725T192 1110T472
1386T854 1487Q1043 1487 1201 1408T1455 1183T1550 858Q1550 756 1519 663T1438 502T1325 383T1199 307T1079 281Q950 281 936 401H932Q875 343 817 312T676 281Q546 281 466 366T385 588Q385 694 420 797T515 982T667 1114T864 1165Q1040 1165 1098 997H1102Z"
/>
<glyph unicode="A" glyph-name="A" horiz-adv-x="1404" d="M332 381L172 0H0L631 1450H774L1405 0H1233L1073 381H332ZM702 1278L387 516H1016L702 1278Z" />
<glyph unicode="B" glyph-name="B" horiz-adv-x="1290" d="M197 0V1450H629Q704 1450 770 1439T896 1400T1000 1333T1070 1229T1096 1085Q1096 966 1028 881T840 768V764Q992 752 1079 656T1167 401Q1167 377 1163 349T1144 281T1107 204T1043 129T948 63T815
18T639 0H197ZM344 1315V815H641Q697 815 747 829T840 871T910 951T936 1069Q936 1092 931 1118T907 1181T857 1246T766 1294T627 1315H344ZM344 692V135H627Q737 135 820 163T956 254T1008 410Q1008 692 645 692H344Z" />
<glyph unicode="C" glyph-name="C" horiz-adv-x="1441" d="M1270 315L1391 229Q1315 112 1172 38T854 -37Q641 -37 468 61T197 333T98 725T196 1116T468 1389T854 1487Q998 1487 1131 1430T1356 1257L1227 1161Q1181 1235 1073 1293T854 1352Q718 1352 604 1301T416
1164T300 964T258 725T299 486T415 287T604 149T854 98Q1129 98 1270 315Z" />
<glyph unicode="D" glyph-name="D" horiz-adv-x="1517" d="M176 0V1450H657Q768 1450 876 1422T1082 1334T1255 1190T1374 985T1419 725T1375 465T1255 261T1082 117T876 29T657 0H176ZM324 1315V135H610Q739 135 847 167T1030 256T1158 388T1235 549T1260 725T1236
901T1159 1061T1031 1193T847 1282T610 1315H324Z" />
<glyph unicode="E" glyph-name="E" horiz-adv-x="1214" d="M344 686V135H1120V0H197V1450H1096V1315H344V821H1047V686H344Z" />
<glyph unicode="F" glyph-name="F" horiz-adv-x="1138" d="M344 686V0H197V1450H1071V1315H344V821H1020V686H344Z" />
<glyph unicode="G" glyph-name="G" horiz-adv-x="1593" d="M1378 1292L1268 1184Q1108 1352 854 1352Q718 1352 604 1301T416 1164T300 964T258 725T299 486T415 287T604 149T854 98Q1076 98 1255 201V686H909V821H1403V111Q1285 40 1138 2T854 -37Q641 -37 468
61T197 333T98 725T196 1116T468 1389T854 1487Q1183 1487 1378 1292Z" />
<glyph unicode="H" glyph-name="H" horiz-adv-x="1478" d="M197 0V1450H344V821H1135V1450H1282V0H1135V686H344V0H197Z" />
<glyph unicode="I" glyph-name="I" horiz-adv-x="540" d="M344 1450V0H197V1450H344Z" />
<glyph unicode="J" glyph-name="J" horiz-adv-x="987" d="M29 266L178 297Q199 203 256 151T408 98Q470 98 517 119T591 173T635 256T658 353T664 459V1450H811V397Q811 335 799 277T757 161T682 60T565 -10T403 -37Q252 -37 153 41T29 266Z" />
<glyph unicode="K" glyph-name="K" horiz-adv-x="1290" d="M344 1450V821H365L1047 1450H1257L526 793L1298 0H1081L369 748H344V0H197V1450H344Z" />
<glyph unicode="L" glyph-name="L" horiz-adv-x="1024" d="M344 1450V135H1020V0H197V1450H344Z" />
<glyph unicode="M" glyph-name="M" horiz-adv-x="1822" d="M422 1450L911 270L1401 1450H1626V0H1479V1253H1475L950 0H872L348 1253H344V0H197V1450H422Z" />
<glyph unicode="N" glyph-name="N" horiz-adv-x="1593" d="M381 1450L1245 221H1249V1450H1397V0H1212L348 1241H344V0H197V1450H381Z" />
<glyph unicode="O" glyph-name="O" horiz-adv-x="1708" d="M1610 942T1610 725T1512 334T1240 61T854 -37T468 61T197 333T98 725T196 1116T468 1389T854 1487T1240 1389T1511 1117ZM1450 599T1450 725T1409 964T1293 1163T1104 1301T854 1352T604 1301T416 1164T300
964T258 725T299 486T415 287T604 149T854 98T1104 149T1292 286T1408 486Z" />
<glyph unicode="P" glyph-name="P" horiz-adv-x="1175" d="M197 0V1450H618Q844 1450 970 1352T1096 1063T970 773T618 674H344V0H197ZM344 1315V809H582Q768 809 852 879T936 1063T852 1246T582 1315H344Z" />
<glyph unicode="Q" glyph-name="Q" horiz-adv-x="1708" d="M258 864T258 743T298 513T410 319T591 185T831 135T1070 185T1251 319T1363 512T1403 743T1363 974T1252 1168T1071 1302T831 1352T592 1302T410 1168T298 974ZM1661 135V0H831Q624 0 457 95T194 361T98
743T193 1125T456 1391T831 1487T1205 1392T1467 1126T1563 743Q1563 542 1479 386T1223 139V135H1661Z" />
<glyph unicode="R" glyph-name="R" horiz-adv-x="1214" d="M344 674V0H197V1450H643Q869 1450 994 1352T1120 1063Q1120 909 1022 806T750 688L1167 0H987L590 674H344ZM344 1315V809H606Q792 809 876 879T961 1063T877 1246T606 1315H344Z" />
<glyph unicode="S" glyph-name="S" horiz-adv-x="1138" d="M1012 1311L883 1210Q787 1352 602 1352Q522 1352 455 1326T340 1238T293 1090Q293 1027 318 980T387 903T485 849T602 806T726 764T843 711T942 638T1010 531T1036 383Q1036 288 994 207T884 74T731
-8T559 -37Q420 -37 301 16T102 178L236 274Q283 192 368 145T565 98Q684 98 780 170T877 362Q877 427 852 476T783 556T684 611T567 654T444 694T326 746T227 818T159 924T133 1075Q133 1177 173 1257T280 1387T429 1461T602 1487Q730 1487 829 1447T1012 1311Z"
/>
<glyph unicode="T" glyph-name="T" horiz-adv-x="1175" d="M662 1315V0H514V1315H29V1450H1147V1315H662Z" />
<glyph unicode="U" glyph-name="U" horiz-adv-x="1404" d="M1233 1450V541Q1233 461 1220 387T1171 234T1077 96T924 1T702 -37Q612 -37 537 -18T407 35T312 114T244 211T202 320T179 432T172 541V1450H319V557Q319 471 335 401T375 283T435 201T505 147T578 116T646
101T702 98Q744 98 785 105T884 140T983 214T1055 349T1085 557V1450H1233Z" />
<glyph unicode="V" glyph-name="V" horiz-adv-x="1251" d="M158 1450L618 221H623L1098 1450H1257L692 0H545L-6 1450H158Z" />
<glyph unicode="W" glyph-name="W" horiz-adv-x="1933" d="M164 1450L512 209H516L881 1450H1057L1421 209H1425L1769 1450H1933L1505 0H1333L969 1241H965L600 0H428L0 1450H164Z" />
<glyph unicode="X" glyph-name="X" horiz-adv-x="1290" d="M252 1450L647 870L1053 1450H1237L745 762L1278 0H1083L641 657L197 0H12L543 762L53 1450H252Z" />
<glyph unicode="Y" glyph-name="Y" horiz-adv-x="1175" d="M662 625V0H514V625L-29 1450H156L588 766L1020 1450H1204L662 625Z" />
<glyph unicode="Z" glyph-name="Z" horiz-adv-x="1138" d="M1079 1450V1327L233 135H1092V0H47V123L895 1315H59V1450H1079Z" />
<glyph unicode="[" glyph-name="bracketleft" horiz-adv-x="532" d="M465 1499V1389H268V-209H465V-319H133V1499H465Z" />
<glyph unicode="\" glyph-name="backslash" horiz-adv-x="757" d="M629 -37L10 1446L127 1487L748 2L629 -37Z" />
<glyph unicode="]" glyph-name="bracketright" horiz-adv-x="532" d="M68 -319V-209H264V1389H68V1499H399V-319H68Z" />
<glyph unicode="^" glyph-name="asciicircum" horiz-adv-x="1363" d="M164 563L633 1450H731L1200 563H1073L682 1303L291 563H164Z" />
<glyph unicode="_" glyph-name="underscore" horiz-adv-x="1024" d="M0 -256V-154H1024V-256H0Z" />
<glyph unicode="`" glyph-name="grave" horiz-adv-x="491" d="M250 1155L-20 1450H166L371 1155H250Z" />
<glyph unicode="a" glyph-name="a" horiz-adv-x="1062" d="M694 588H762V612Q762 860 516 860Q349 860 223 748L141 844Q277 983 547 983Q644 983 721 948T848 834T897 643V215Q897 102 913 0H782Q770 70 770 156H766Q708 62 626 19T428 -25Q340 -25 267 5T146
101T98 256Q98 320 119 372T175 458T261 517T362 555T476 576T588 586T694 588ZM762 477H692Q246 477 246 274Q246 186 312 142T471 98Q612 98 687 185T762 408V477Z" />
<glyph unicode="b" glyph-name="b" horiz-adv-x="1251" d="M147 0V1548H283V799H287Q349 890 452 936T659 983Q882 983 1025 840T1169 479T1026 118T659 -25Q555 -25 452 22T287 160H283V0H147ZM1022 314T1022 479T923 752T659 860T385 751T276 479T385 208T659
98T923 206Z" />
<glyph unicode="c" glyph-name="c" horiz-adv-x="987" d="M956 817L846 733Q810 788 747 824T606 860Q442 863 344 755T246 479T344 203T606 98Q683 98 746 134T846 225L956 141Q887 60 796 19T606 -25Q376 -28 237 115T98 479T237 843T606 983Q706 981 796 940T956 817Z" />
<glyph unicode="d" glyph-name="d" horiz-adv-x="1251" d="M1104 1548V0H969V160H965Q903 69 800 22T592 -25Q369 -25 226 118T82 479T225 840T592 983Q696 983 799 937T965 799H969V1548H1104ZM229 644T229 479T328 206T592 98Q757 98 866 207T975 479T866 750T592
860Q428 860 329 752Z" />
<glyph unicode="e" glyph-name="e" horiz-adv-x="1138" d="M1040 442H242Q254 296 353 197T594 98Q695 98 776 146T901 264L1006 178Q846 -25 594 -25Q380 -25 239 118T98 479Q98 695 237 839T582 983Q723 982 828 917T987 744T1040 504V442ZM246 553H893Q893
691 810 775T582 860Q451 860 349 766T246 553Z" />
<glyph unicode="f" glyph-name="f" horiz-adv-x="606" d="M594 958V836H367V0H231V836H29V958H231V1221Q231 1573 553 1573Q602 1573 670 1559L645 1436Q587 1450 541 1450Q487 1450 451 1432T398 1378T374 1302T367 1204V958H594Z" />
<glyph unicode="g" glyph-name="g" horiz-adv-x="1251" d="M121 -299L221 -193Q282 -274 378 -321T588 -369Q688 -369 761 -340T877 -258T940 -139T961 8V180H956Q836 0 598 0Q496 0 404 37T245 138T138 293T98 487Q98 625 160 738T335 917T586 983Q820 983 956
799H961V958H1096V8Q1096 -40 1091 -85T1070 -182T1030 -276T965 -360T872 -429T746 -475T582 -492Q302 -492 121 -299ZM246 492Q246 340 349 232T602 123Q701 123 785 168T919 298T965 492Q965 647 866 753T602 860Q453 860 350 752T246 492Z" />
<glyph unicode="h" glyph-name="h" horiz-adv-x="1138" d="M147 0V1548H283V805H287Q331 883 421 933T608 983Q788 983 878 886T969 608V0H834V530Q834 698 776 779T573 860Q556 860 531 856T460 831T377 774T312 664T283 492V0H147Z" />
<glyph unicode="i" glyph-name="i" horiz-adv-x="491" d="M313 958V0H178V958H313ZM344 1368T344 1327T314 1258T246 1229T178 1257T147 1327T177 1396T246 1425T314 1397Z" />
<glyph unicode="j" glyph-name="j" horiz-adv-x="491" d="M-63 -471L-45 -354L-39 -356Q11 -369 33 -369Q80 -369 111 -352T155 -301T173 -239T178 -168V958H313V-190Q313 -193 313 -199Q317 -492 43 -492Q-12 -492 -63 -471ZM344 1368T344 1327T314 1258T246
1229T178 1257T147 1327T177 1396T246 1425T314 1397Z" />
<glyph unicode="k" glyph-name="k" horiz-adv-x="987" d="M283 1548V526L735 958H938L461 520L989 0H780L283 504V0H147V1548H283Z" />
<glyph unicode="l" glyph-name="l" horiz-adv-x="491" d="M313 1548V0H178V1548H313Z" />
<glyph unicode="m" glyph-name="m" horiz-adv-x="1744" d="M147 0V745Q147 780 137 958H283V813H287Q334 893 420 938T596 983Q639 983 679 975T763 946T842 884T901 784Q942 875 1030 929T1217 983Q1397 983 1487 886T1577 608V0H1442V559Q1442 713 1388 786T1200
860Q1142 860 1095 841T1018 788T968 710T939 615T930 510V0H795V559Q795 713 741 786T553 860Q542 860 528 858T486 848T433 826T379 784T331 718T297 623T283 492V0H147Z" />
<glyph unicode="n" glyph-name="n" horiz-adv-x="1138" d="M137 958H276Q283 907 283 805H287Q331 883 421 933T608 983Q788 983 878 886T969 608V0H834V530Q834 698 776 779T573 860Q556 860 531 856T460 831T377 774T312 664T283 492V0H147V748Q147 786 137 958Z" />
<glyph unicode="o" glyph-name="o" horiz-adv-x="1214" d="M1116 697T1116 479T973 118T606 -25Q384 -25 241 118T98 479T241 840T606 983Q829 983 972 840ZM969 314T969 479T870 752T606 860Q443 860 345 752T246 479T344 206T606 98Q770 98 869 206Z" />
<glyph unicode="p" glyph-name="p" horiz-adv-x="1251" d="M147 -590V958H283V799H287Q349 890 452 936T659 983Q882 983 1025 840T1169 479T1026 118T659 -25Q555 -25 452 22T287 160H283V-590H147ZM1022 314T1022 479T923 752T659 860T385 751T276 479T385 208T659
98T923 206Z" />
<glyph unicode="q" glyph-name="q" horiz-adv-x="1251" d="M1104 958V-590H969V160H965Q903 69 800 22T592 -25Q369 -25 226 118T82 479T225 840T592 983Q696 983 799 937T965 799H969V958H1104ZM229 644T229 479T328 206T592 98Q757 98 866 207T975 479T866 750T592
860Q428 860 329 752Z" />
<glyph unicode="r" glyph-name="r" horiz-adv-x="679" d="M162 0V659Q162 680 154 958H287V780H291Q324 866 402 924T598 983Q656 983 698 971L672 838Q644 848 594 848Q521 848 462 819T368 743T315 644T297 541V0H162Z" />
<glyph unicode="s" glyph-name="s" horiz-adv-x="872" d="M776 811L655 731Q587 860 449 860Q369 860 310 824T250 717Q250 653 294 621T438 565L575 532Q679 509 744 439T809 270Q809 195 778 137T693 44T574 -8T436 -25Q193 -25 68 162L184 242Q278 98 436 98Q528
98 595 139T662 258Q662 324 615 357T479 412L348 442Q102 506 102 694Q102 789 154 856T284 953T457 983Q564 983 648 942T776 811Z" />
<glyph unicode="t" glyph-name="t" horiz-adv-x="679" d="M643 958V836H367V270Q367 170 401 134T506 98T645 135L651 10Q573 -25 469 -25Q435 -25 405 -19T342 4T285 49T246 123T231 231V836H29V958H231V1229H367V958H643Z" />
<glyph unicode="u" glyph-name="u" horiz-adv-x="1138" d="M979 0H840Q834 51 834 154H829Q785 76 695 26T508 -25Q328 -25 238 72T147 350V958H283V428Q283 260 340 179T543 98Q553 98 568 100T612 110T669 133T728 175T781 240T819 336T834 467V958H969V211Q969
175 979 0Z" />
<glyph unicode="v" glyph-name="v" horiz-adv-x="987" d="M958 958L569 0H418L29 958H190L496 152H500L805 958H958Z" />
<glyph unicode="w" glyph-name="w" horiz-adv-x="1478" d="M29 958H188L410 180H414L670 958H809L1065 180H1069L1290 958H1450L1147 0H995L741 786H737L483 0H332L29 958Z" />
<glyph unicode="x" glyph-name="x" horiz-adv-x="987" d="M0 0L395 512L47 958H231L498 600L752 958H920L586 512L987 0H803L481 420L172 0H0Z" />
<glyph unicode="y" glyph-name="y" horiz-adv-x="987" d="M203 958L504 166L797 958H961L481 -250Q434 -370 366 -431T180 -492Q106 -492 55 -477L70 -346Q113 -369 172 -369Q239 -369 281 -327T356 -197L426 -12L33 958H203Z" />
<glyph unicode="z" glyph-name="z" horiz-adv-x="872" d="M805 958V860L244 123H825V0H47V98L608 836H76V958H805Z" />
<glyph unicode="{" glyph-name="braceleft" horiz-adv-x="532" d="M25 528V651Q98 651 152 713T207 879V1243Q207 1378 268 1438T428 1499H559V1376H444Q415 1376 395 1365T365 1340T350 1299T343 1255T342 1206V854Q342 798 328 752T292 678T245 630T198 602T160
592V588Q182 585 209 572T268 530T321 449T342 326V-27Q342 -57 343 -75T349 -119T365 -160T395 -186T444 -197H559V-319H428Q330 -319 269 -259T207 -63V301Q207 404 153 466T25 528Z" />
<glyph unicode="|" glyph-name="bar" horiz-adv-x="454" d="M166 1536H289V-512H166V1536Z" />
<glyph unicode="}" glyph-name="braceright" horiz-adv-x="532" d="M508 651V528Q435 528 381 466T326 301V-63Q326 -198 264 -258T104 -319H-27V-197H88Q117 -197 137 -186T167 -161T182 -120T189 -75T190 -27V326Q190 395 211 448T265 530T324 571T373 588V592Q356
594 336 602T289 630T241 677T205 751T190 854V1206Q190 1236 189 1254T183 1299T167 1339T137 1365T88 1376H-27V1499H104Q202 1499 264 1439T326 1243V879Q326 776 380 714T508 651Z" />
<glyph unicode="~" glyph-name="asciitilde" horiz-adv-x="1363" d="M1096 754L1182 672Q1153 632 1130 605T1071 546T993 498T903 481Q836 481 800 490T690 541Q676 549 640 570T582 603T530 626T471 637Q367 637 268 487L182 569Q211 609 234 636T293 695T371
743T461 760Q528 760 564 751T674 700Q690 692 724 671T781 638T834 615T893 604Q997 604 1096 754Z" />
</font>
</defs>
</svg>
