<?xml version="1.0" encoding="utf-8"?>
<!-- Generator: Adobe Illustrator 16.0.0, SVG Export Plug-In . SVG Version: 6.00 Build 0)  -->
<!DOCTYPE svg PUBLIC "-//W3C//DTD SVG 1.1//EN" "http://www.w3.org/Graphics/SVG/1.1/DTD/svg11.dtd">
<svg version="1.1" id="Layer_1" xmlns="http://www.w3.org/2000/svg" xmlns:xlink="http://www.w3.org/1999/xlink" x="0px" y="0px"
	 width="612px" height="792px" viewBox="0 0 612 792" enable-background="new 0 0 612 792" xml:space="preserve">
<path d="M556.309,285.228c-2.448-2.448-5.509-4.284-9.181-5.508c-0.612,0-1.224-0.612-1.836-0.612l-1.836-0.612l0,0l-34.272-8.568
	l26.316-26.316c17.136-17.136,22.645-39.78,14.076-60.588c-9.792-23.868-36.108-38.556-67.932-38.556H302.94
	c-6.732,0-12.853,2.448-17.749,7.344l-208.08,208.08c-1.224,1.224-1.836,1.836-3.06,3.06l-1.224,1.224l0,0
	c-15.3,17.136-25.092,39.168-25.092,63.648c0,52.02,42.228,94.859,94.86,94.859h201.348c6.731,0,12.852-2.447,17.748-7.344
	L556.92,320.112c4.896-4.896,7.344-11.016,7.344-17.748C563.652,296.244,561.204,290.124,556.309,285.228z M515.916,290.736
	L332.928,473.724H141.984c-24.48,0-44.676-20.195-44.676-44.676c0-24.479,20.196-44.676,44.676-44.676H293.76
	c7.344,0,12.852,5.508,12.852,12.852c0,7.345-5.508,12.853-12.852,12.853H150.552c-13.464,0-25.092,11.016-25.092,25.092
	s11.016,25.092,25.092,25.092H293.76c17.136,0,32.436-6.731,44.064-18.359l0,0l156.06-156.061L515.916,290.736z M298.044,165.276
	c1.224-1.224,3.06-1.836,4.896-1.836h178.704c24.479,0,44.063,10.404,50.796,27.54c5.508,13.464,1.836,28.764-9.792,40.392
	l-165.853,165.24c0-34.272-27.54-62.424-61.812-62.424h-153c-4.896,0-9.792,0.612-14.076,1.224L298.044,165.276z M543.456,307.872
	L348.229,503.1c-1.225,1.225-3.061,1.836-4.896,1.836H141.984c-42.228,0-76.5-34.271-76.5-76.5c0-20.195,7.956-38.556,20.808-52.02
	l3.06-3.06c13.464-12.852,31.824-20.808,52.02-20.808H293.76c23.868,0,44.064,20.196,44.064,44.064
	c0,12.239-4.896,23.256-12.853,31.212l0,0c-7.956,7.956-18.972,12.852-31.211,12.852H150.552c-3.672,0-6.732-3.06-6.732-6.731
	s3.06-6.732,6.732-6.732H293.76c17.136,0,31.211-14.076,31.211-31.212s-14.075-31.212-31.211-31.212H141.984
	c-34.884,0-63.036,28.152-63.036,63.036c0,34.884,28.152,63.036,63.036,63.036h198.9l193.393-193.392
	c2.448-2.448,6.731-2.448,9.18,0c1.224,1.224,1.836,3.06,1.836,4.896C545.292,304.812,544.68,306.648,543.456,307.872z"/>
<rect id="_x3C_Slice_x3E_" x="27.5" y="106.5" fill="none" width="576" height="457"/>
<rect id="_x3C_Slice_x3E__1_" x="27.5" y="106.5" fill="none" width="576" height="457"/>
</svg>
